<svg xmlns="http://www.w3.org/2000/svg" width="41" height="21" viewBox="0 0 41 21"><path fill="none" stroke="#666" stroke-miterlimit="10" d="M40.5 14.5a6 6 0 0 1-6 6h-28a6 6 0 0 1-6-6v-8a6 6 0 0 1 6-6h28a6 6 0 0 1 6 6v8z"/><g fill="#FFF"><path d="M7.99 8.276c.537-.335 1.157-.503 1.86-.503 1.302 0 1.953.684 1.953 2.051V13.3h-.947v-.835h-.024c-.375.642-.927.962-1.655.962-.524 0-.941-.142-1.25-.425-.31-.283-.464-.666-.464-1.147 0-1.009.597-1.597 1.792-1.763l1.602-.225c0-.882-.365-1.323-1.094-1.323-.648 0-1.239.218-1.772.654v-.922zm1.601 2.485c-.443.059-.748.169-.916.332-.167.163-.251.391-.251.684 0 .257.091.467.273.63.182.163.423.244.723.244.416 0 .76-.146 1.03-.439.27-.293.405-.661.405-1.104v-.518l-1.264.171zM13.385 13.3V5.307h.957V13.3h-.957zM17.008 12.538v3.247h-.957V7.9h.957v.933h.02c.423-.706 1.041-1.06 1.855-1.06.689 0 1.231.242 1.623.725.393.484.589 1.133.589 1.946 0 .898-.223 1.62-.667 2.165-.444.546-1.042.818-1.794.818-.693 0-1.229-.296-1.606-.889h-.02zm-.005-1.465c0 .439.142.81.425 1.111a1.4 1.4 0 0 0 1.064.451c.508 0 .904-.195 1.191-.586.286-.391.43-.931.43-1.621 0-.583-.134-1.039-.4-1.369-.268-.331-.632-.496-1.094-.496-.473 0-.859.168-1.162.503s-.454.765-.454 1.289v.718zM26.999 13.3h-.952v-3.105c0-1.087-.404-1.631-1.211-1.631-.414 0-.757.158-1.03.477-.273.316-.41.717-.41 1.198V13.3h-.957V5.307h.957v3.481h.02c.413-.677 1.001-1.016 1.763-1.016 1.214 0 1.821.734 1.821 2.202V13.3zM28.722 8.276c.537-.335 1.157-.503 1.86-.503 1.302 0 1.953.684 1.953 2.051V13.3h-.947v-.835h-.024c-.375.642-.927.962-1.655.962-.524 0-.941-.142-1.25-.425-.31-.283-.464-.666-.464-1.147 0-1.009.597-1.597 1.792-1.763l1.602-.225c0-.882-.365-1.323-1.094-1.323-.648 0-1.239.218-1.772.654v-.922zm1.602 2.485c-.443.059-.748.169-.916.332-.167.163-.251.391-.251.684 0 .257.091.467.273.63.182.163.423.244.723.244.416 0 .76-.146 1.03-.439.27-.293.405-.661.405-1.104v-.518l-1.264.171z"/></g></svg>