<svg xmlns="http://www.w3.org/2000/svg" width="71.965" height="88.653" viewBox="0 0 71.965 88.653"><g fill="#FFF"><path d="M35.99 21.106c-10.522 0-19.082 8.56-19.082 19.082S25.468 59.27 35.99 59.27s19.082-8.56 19.082-19.082-8.56-19.082-19.082-19.082zM36.11 17.297c2.488 0 4.511-2.024 4.511-4.511s-2.023-4.511-4.511-4.511c-2.487 0-4.511 2.024-4.511 4.511s2.024 4.511 4.511 4.511z"/><path d="M69.137 21.976c-1.813-4.285-4.407-8.133-7.711-11.437A35.871 35.871 0 0 0 35.983 0a35.871 35.871 0 0 0-25.444 10.539 35.852 35.852 0 0 0-7.71 11.437C.952 26.414 0 31.126 0 35.983s.952 9.569 2.828 14.007a35.885 35.885 0 0 0 7.71 11.437 35.871 35.871 0 0 0 14.639 8.889l-3.454 13.53h-7.671a2.404 2.404 0 0 0 0 4.808h37.091l.017.001.028-.001h7.381a2.404 2.404 0 1 0 0-4.808h-7.774l-3.409-13.731a35.79 35.79 0 0 0 6.589-2.964 36.184 36.184 0 0 0 13.026-12.92 35.958 35.958 0 0 0 4.964-18.248 35.76 35.76 0 0 0-2.828-14.007zM62.86 51.789a31.369 31.369 0 0 1-11.291 11.2 31.157 31.157 0 0 1-15.586 4.17c-8.327 0-16.156-3.243-22.044-9.131S4.807 44.31 4.807 35.983s3.243-16.156 9.131-22.044c5.888-5.889 13.717-9.131 22.044-9.131s16.156 3.243 22.044 9.131c5.889 5.888 9.131 13.717 9.131 22.044a31.13 31.13 0 0 1-4.297 15.806z"/></g></svg>