<svg xmlns="http://www.w3.org/2000/svg" width="71.965" height="88.653" viewBox="0 0 71.965 88.653"><g fill="#CCC"><path d="M35.99 21.106c-10.522 0-19.082 8.56-19.082 19.082S25.468 59.27 35.99 59.27s19.082-8.56 19.082-19.082-8.56-19.082-19.082-19.082zM36.11 17.297a4.516 4.516 0 0 0 4.511-4.511 4.516 4.516 0 0 0-4.511-4.511 4.517 4.517 0 0 0-4.511 4.511 4.517 4.517 0 0 0 4.511 4.511z"/><path d="M69.137 21.976a35.871 35.871 0 0 0-7.711-11.437A35.871 35.871 0 0 0 35.983 0a35.871 35.871 0 0 0-25.444 10.539 35.852 35.852 0 0 0-7.71 11.437A35.76 35.76 0 0 0 0 35.983a35.885 35.885 0 0 0 10.538 25.444 35.871 35.871 0 0 0 14.639 8.889l-3.454 13.53h-7.671a2.404 2.404 0 0 0 0 4.808h37.091l.017.001.028-.001h7.381a2.404 2.404 0 1 0 0-4.808h-7.774l-3.409-13.731a35.79 35.79 0 0 0 6.589-2.964 36.184 36.184 0 0 0 13.026-12.92 35.958 35.958 0 0 0 4.964-18.248 35.76 35.76 0 0 0-2.828-14.007zM62.86 51.789a31.369 31.369 0 0 1-11.291 11.2 31.157 31.157 0 0 1-15.586 4.17c-8.327 0-16.156-3.243-22.044-9.131S4.807 44.31 4.807 35.983c0-8.327 3.243-16.156 9.131-22.044 5.888-5.889 13.717-9.131 22.044-9.131s16.156 3.243 22.044 9.131c5.889 5.888 9.131 13.717 9.131 22.044a31.13 31.13 0 0 1-4.297 15.806zm0 0"/></g></svg>