<svg xmlns="http://www.w3.org/2000/svg" width="29.013" height="32.102" viewBox="0 0 29.013 32.102"><g fill="#999"><path d="M16.006 25.973c-.742 0-1.475-.062-2.194-.184l-1.624 4.028h7.847l-1.604-4.072c-.796.15-1.608.228-2.425.228zM17.681 5.257a1.63 1.63 0 0 0-1.628-1.628 1.63 1.63 0 0 0-1.628 1.628c0 .898.73 1.628 1.628 1.628a1.63 1.63 0 0 0 1.628-1.628z"/><path d="M16.006 1.735c3.005 0 5.831 1.17 7.956 3.296a11.18 11.18 0 0 1 3.296 7.956c0 2.01-.536 3.983-1.551 5.705-.267.452-.565.884-.891 1.293l1.234 1.234a12.91 12.91 0 0 0 1.152-1.646 12.977 12.977 0 0 0 1.792-6.586 12.934 12.934 0 0 0-3.804-9.183A12.946 12.946 0 0 0 16.006 0c-1.753 0-3.453.344-5.055 1.021a12.921 12.921 0 0 0-3.178 1.921l1.234 1.234a11.166 11.166 0 0 1 6.999-2.441zM24.005 29.817H21.9l-1.778-4.513c.088-.029.175-.06.262-.091l-1.382-1.382c-.971.267-1.979.406-2.996.406-3.005 0-5.831-1.17-7.956-3.296a11.177 11.177 0 0 1-3.295-7.956c0-1.028.137-2.035.402-3l-1.38-1.379a12.907 12.907 0 0 0-.758 4.379c0 1.753.343 3.453 1.021 5.055a12.923 12.923 0 0 0 2.783 4.128 12.94 12.94 0 0 0 5.284 3.208l-1.79 4.44H8.008a1.143 1.143 0 0 0 0 2.286h15.998a1.143 1.143 0 1 0-.001-2.285z"/><path d="M22.433 17.745a6.833 6.833 0 0 0 .463-2.463 6.898 6.898 0 0 0-6.89-6.89c-.869 0-1.697.168-2.463.463l8.89 8.89zM9.238 14.016a6.861 6.861 0 0 0-.122 1.266 6.898 6.898 0 0 0 6.89 6.89c.433 0 .855-.045 1.266-.122l-8.034-8.034zM28.666 27.094L1.963.391A1.155 1.155 0 0 0 .33.375a1.155 1.155 0 0 0 .017 1.633L27.05 28.71a1.155 1.155 0 0 0 1.633.017 1.155 1.155 0 0 0-.017-1.633z"/></g></svg>