<svg xmlns="http://www.w3.org/2000/svg" width="518.603" height="563.394" viewBox="0 0 518.603 563.394"><path fill-rule="evenodd" clip-rule="evenodd" fill="#B8B8B8" d="M0 248.777C14.999 106.284 120.315 12.115 250.724.221c8.95-.817 287.749-12.431 266.75 325.052-115.848 5.017-242.468 1.336-355.014 2.785 11.531 85.71 47.705 97.924 99.9 114.209 52.518 16.385 182.809-.731 207.608-37.209l-.492 115.205c-13.499 6-90.967 62.766-230.988 35.998C86.642 527.234 63.091 384.211 65.997 331.273 73.974 185.934 199.918 139.921 199.976 139.9c-3.563 1.296-33.674 54.158-38.67 88.667.87-2.925 58.934-.778 63.305-.824 30.766-.328 61.534-.58 92.301-.565 15.017.007 30.036.056 45.051.334.201-.927 8.362-85.84-59.987-112.945-56.485-22.4-125.058-5.157-177.107 21.355-36.267 18.473-66.774 44.282-93.436 74.843-7.263 8.325-14.248 16.889-21.083 25.567C8.27 238.971.329 245.648 0 248.777z"/></svg>