<svg xmlns="http://www.w3.org/2000/svg" width="39.782" height="40.534" viewBox="0 0 39.782 40.534"><g fill="#CCC"><path d="M33.955 6.589a1.558 1.558 0 1 0-2.204 2.205c6.539 6.54 6.539 17.179 0 23.719-6.537 6.538-17.179 6.538-23.719 0-6.539-6.54-6.539-17.18 0-23.719a1.559 1.559 0 0 0-2.204-2.205A19.756 19.756 0 0 0 0 20.653c0 5.313 2.07 10.308 5.827 14.064 3.877 3.879 8.97 5.817 14.064 5.817s10.187-1.938 14.064-5.817a19.756 19.756 0 0 0 5.827-14.064 19.76 19.76 0 0 0-5.827-14.064zm0 0"/><path d="M19.891 27.688a1.56 1.56 0 0 0 1.559-1.56V1.559a1.56 1.56 0 1 0-3.119 0v24.569c.001.86.698 1.56 1.56 1.56zm0 0"/></g></svg>