<svg xmlns="http://www.w3.org/2000/svg" width="269.656" height="269.656" viewBox="1176 331 269.656 269.656"><path fill="#F05A5A" d="M1310.3 331c-74.024 0-134.3 60.276-134.3 134.3 0 74.022 60.276 135.356 134.3 135.356 74.022 0 135.356-60.277 135.356-135.356 0-75.081-60.277-134.3-135.356-134.3zm-8.461 62.391c0-5.287 4.229-9.517 9.517-9.517s9.518 4.229 9.518 9.517v53.932c0 5.287-4.231 9.517-9.518 9.517s-9.517-4.229-9.517-9.517v-53.932zm8.461 153.333c-40.184 0-71.909-31.724-71.909-71.908 0-30.667 19.035-56.046 45.472-66.621v20.093c-15.863 9.517-27.495 26.436-27.495 46.528 0 29.61 24.323 53.932 53.932 53.932s53.93-24.322 53.93-53.932c0-20.092-10.575-37.011-27.494-46.528v-20.093c26.437 10.575 45.471 35.954 45.471 66.621 0 39.127-31.723 71.908-71.907 71.908zm0 0"/></svg>