<svg xmlns="http://www.w3.org/2000/svg" width="289.453" height="282.637" viewBox="0 0 289.453 282.637"><path fill="#B8B8B8" d="M32.208 119.517c16.394-54.55 52.318-93.453 118-99 4.508-.381 10.848-.038 16-1 4.449-.831 9.871-3.951 15-6 20.823-8.318 66.805-22.894 90-5 20.149 15.545 16.436 53.357 4 78 9.939 19.473 17.28 46.613 13 77-58.348 2.34-126.315.324-183 1 1.896 29.339 20.865 51.814 49 55 27.504 3.114 46.51-11.987 59-29h70c-18.187 50.76-64.414 90.128-136 85-16.283-1.166-28.957-5.773-43-11-23.453 12.461-75.354 30.975-96 5-15.672-19.718-5.602-55.592 3-79 17.41-47.38 50.559-94.314 83-121 .189-.81 1.004-.997 1-2-25.631 12.703-42.908 33.76-63 52zm246-74c-.946-34.023-46.148-30.695-70-17 26.638 10.362 46.09 27.91 62 49 3.449-10.702 8.345-19.562 8-32zm-173 83h111c-3.229-69.56-107.516-63.946-111 0zm-82 122c5.566 30.799 49.945 21.84 70 8-26.332-14.335-42.735-38.598-56-66-6.159 14.815-17.676 37.663-14 58z"/></svg>