<svg xmlns="http://www.w3.org/2000/svg" width="104.478" height="36" viewBox="324.452 -154.781 104.478 36"><g fill="#555"><path d="M365.28-123.671h4.74v.734h.585v-1.296h-2.443l-.027-.06a5.117 5.117 0 0 0-.38-.662.37.37 0 0 0-.073-.13l-.055-.057-.5.208.068.115c.05.084.116.208.198.373.04.08.077.152.11.213h-2.81v1.295h.587v-.736.003z"/><path d="M368.525-123.381v-.117h-.586v.116c0 1.004-.074 1.74-.22 2.19h-3.152v.562h2.874c-.403.54-1.354.958-2.832 1.242l-.217.038.155.154s.01.014.025.06l.02.037c.09.108.12.173.13.208l.028.11.11-.025c1.383-.313 2.348-.747 2.868-1.29.212.097.49.23.84.396a34.68 34.68 0 0 1 1.718.784l.095.047.326-.53-.12-.055a81.11 81.11 0 0 0-1.85-.786l-.66-.298a.502.502 0 0 0 .037-.07l.008-.02h2.636v-.56h-2.42c.125-.49.187-1.21.187-2.193z"/><path d="M365.502-122.514l-.303.475.12.056c.432.2.837.42 1.204.652l.097.06.335-.503-.11-.06c-.457-.254-.878-.47-1.25-.64l-.093-.04zm1.7.303l.35-.523-.146-.048a1.209 1.209 0 0 1-.185-.095c-.424-.22-.76-.397-1.014-.532l-.09-.048-.31.442.112.063c.422.237.82.465 1.19.684l.093.055v.002zm8.515 3.002h.56v-.583h1.114v.506h.585v-5.227h-2.26v5.302l.001.002zm.56-3.223v-1.545h1.114v1.544l-1.114.001zm1.114.534v1.544h-1.114v-1.544h1.114zm3.553-3.223h-.56v1.42h-2.283v.537h2.28v3.262c.007.128-.02.224-.077.284-.065.068-.178.102-.337.102h-1.125l.05.15c.032.094.056.206.072.334l.013.1h1.019c.336-.01.587-.1.746-.27.143-.153.212-.366.202-.63v-3.334h.887v-.536h-.888v-1.42l.001.001z"/><path d="M379.152-120.783l.505-.294-.04-.094c-.12-.272-.32-.644-.59-1.102a4.858 4.858 0 0 1-.148-.272l-.053-.108-.487.265.056.102c.302.553.54 1.02.706 1.387l.051.116zm9.427 1.904h.586v-.406h2.736v.406h.585v-2.87h-3.908l.001 2.87zm3.322-2.308v1.39h-2.737v-1.39h2.737z"/><path d="M388.102-123.981a79.395 79.395 0 0 0 4.51-.35l.156-.016-.248-.58-.087.012c-1.577.2-3.194.32-4.805.354l-.113.002v1.964c0 .85-.05 1.506-.15 1.954a3.917 3.917 0 0 1-.592 1.355l-.053.08.068.066c.04.04.112.095.22.167.062.042.08.057.083.06l.106.11.077-.13c.345-.586.57-1.126.673-1.608.103-.48.155-1.17.155-2.054v-.062h4.97v-.56h-4.97v-.764zm12.05.13h-.825l.193-.065-.034-.108c-.085-.272-.215-.61-.384-1l-.042-.097-.528.176.054.117c.116.25.242.578.376.977h-1.02v.536h2.21v-.536zm3.65-.89h-.56v.99h-.834v-1.37h-.56v1.37h-.835v-.99h-.561v1.526h3.35m-4.322 2.897c.232-1.01.414-1.853.54-2.51l.024-.116-.533-.09-.022.113a70.76 70.76 0 0 1-.467 2.265l-.014-.084c-.117-.632-.27-1.35-.458-2.135l-.025-.106-.502.09.024.115c.016.084.042.227.076.434.146.664.266 1.234.355 1.695l.02.11.52-.086c-.03.134-.06.272-.093.413-.372.077-.694.14-.963.187l-.116.02.092.504.11-.017c.662-.102 1.347-.23 2.037-.382l.09-.02v-.093c0-.03.01-.08.026-.178v-.293l-.53.107c-.07.022-.136.04-.191.057zm.668-1.883h1.585l-.136.48h-1.296v2.893h.56v-2.358h.48v2.003h.535v-2.003h.504v1.85h.19l.02.053c.046.122.07.22.07.29v.115h.665c.21 0 .372-.058.484-.175.124-.13.182-.323.172-.575v-2.093h-1.793l.12-.48h1.927v-.535h-4.086v.535h-.001zm2.767 1.014h.504v1.54c.004.06 0 .144-.04.187-.03.032-.08.047-.154.047l-.046-.002c-.085 0-.173-.003-.265-.008l.001-1.764zm6.735-3.477h5.1v.586h-5.1v-.586zm2.476 2.539h3.206v-.586h-6.29v.586h2.317c-.35.56-.787 1.125-1.304 1.687-.142.175-.32.33-.53.457l-.092.057.298.556.088-.023c.04-.01.145-.027.438-.053a.307.307 0 0 1 .095-.02c1.15-.05 2.392-.083 3.696-.1.134.15.265.313.39.484l.066.092.525-.364-.077-.095c-.81-1-1.374-1.688-1.725-2.106l-.067-.08-.492.33.073.097c.073.1.11.147.135.17.296.374.54.68.737.923-.923.043-1.982.08-3.156.11.71-.81 1.26-1.506 1.635-2.07l.034-.05v-.002z"/></g><g fill="#555"><path d="M373.299-132.249h3.946v-2.023h-3.946v-1.6h4.046v-10.415h-12.213v10.415h4.07v1.6h-3.97v2.022h3.97v2.106h-4.57v2.24h13.213v-2.24h-4.546v-2.105zm-.407-12.462h.85v2.796h-.85v-2.796zm-3.315 7.218h-.85v-2.623h.85v2.623zm0-4.42h-.85v-2.798h.85V-141.913zm3.316 1.797h.85v2.623h-.85v-2.623zm37.009 9.979v-10.39h-9.39v10.39h4.895l.75-1.748h-1.925v-6.895h1.924v8.643"/><path d="M396.752-145.111l-.624-.75h-4.62l2.896 3.747-3.57 1.123v3.347l4.37-1.323v2.672l-4.37 1.3v3.42l4.37-1.323v2.755h-2.774l.925 2.24h5.945v-13.938l2.048-4.445h-4.046m-9.633 6.696l1.715-4.87v-1.825h-11.315v2.024h7.626l-1.62 4.67h-.926l-1.014-3.198h-3.603l1.01 3.197h-1.473v2.02h2.848v7.92h-1.65l.725 1.748h5.02v-9.668h.727v4.073h3.645v-6.094"/><path d="M415.21-131.975v-12.986h-8.784l.62-1.325h-4.67l-1.603 3.422h-.76l.5 1.85h4.058l.802-1.71h5.742v13.073h-1.649l.724 1.748h5.02"/></g><path fill="#555" d="M420.012-140.527v-5.078h-1.897v-.68h4.563v.68h-1.906v5.077h-.76v.001zm3.424 0v-5.758h1.147l1.364 4.076c.126.38.217.665.275.853.064-.21.167-.517.305-.923l1.378-4.006h1.025v5.757h-.734v-4.816l-1.673 4.82h-.686l-1.665-4.906v4.9h-.736v.003z"/><path fill="#E6501E" d="M341.782-154.781c-9.57 0-17.33 7.76-17.33 17.33 0 8.932 6.76 16.286 15.442 17.226a10.744 10.744 0 0 0 3.103-3.55s.56-1.026.56-2.786a4.13 4.13 0 0 0-3.263-4.036 10.727 10.727 0 0 0-3.406-.185l-5.366.565a4.108 4.108 0 0 1-3.194-1.038 6.599 6.599 0 0 1-2.003-3.368l6.868-3.133c.396-.244.686-.652.764-1.146l.202-1.275c.09-.57.378-1.112.854-1.512l3.068-2.574a6.593 6.593 0 0 1-2.04-5.373l.242-2.76a10.703 10.703 0 0 0 2.395 4.684c.123-1.576.802-3 1.84-4.07a4.131 4.131 0 0 0 2.253 3.025 4.143 4.143 0 0 1 2.25 2.582 17.246 17.246 0 0 1 9.904 4.188l-2.842.525c2.913.51 5.42 2.197 7.018 4.552.007-.18.01-.36.01-.542 0-9.569-7.758-17.33-17.329-17.329z"/></svg>