<svg xmlns="http://www.w3.org/2000/svg" width="160.528" height="159.102" viewBox="0 0 160.528 159.102"><g fill="#CCC"><path d="M84.009 159.102h-1.433L27.089 121.67H15.704c-4.093 0-7.988-1.577-10.97-4.439C1.681 114.301 0 110.414 0 106.288V58.162c0-4.126 1.681-8.013 4.735-10.945 2.982-2.863 6.877-4.438 10.97-4.438h11.221L82.412 0h1.597c8.482 0 15.383 6.901 15.383 15.383v128.336c0 8.483-6.901 15.383-15.383 15.383z"/><path d="M15.704 52.155c-3.43 0-6.327 2.751-6.327 6.007v48.126c0 3.255 2.897 6.006 6.327 6.006h14.253l55.294 37.303a6.017 6.017 0 0 0 4.764-5.877V15.383a6.015 6.015 0 0 0-4.618-5.844L30.121 52.155H15.704zM129.589 134.315a4.689 4.689 0 0 1-2.658-8.555 55.73 55.73 0 0 0 24.219-45.956c0-18.702-9.312-36.056-24.911-46.423a4.688 4.688 0 1 1 5.19-7.81c18.22 12.11 29.098 32.383 29.098 54.233 0 21.458-10.576 41.528-28.29 53.687a4.665 4.665 0 0 1-2.648.824z"/><path d="M126.116 102.776a4.69 4.69 0 0 1-2.657-8.554 17.68 17.68 0 0 0 7.684-14.578 17.647 17.647 0 0 0-7.904-14.726 4.689 4.689 0 0 1 5.191-7.809 27.006 27.006 0 0 1 12.09 22.535 27.052 27.052 0 0 1-11.755 22.308 4.658 4.658 0 0 1-2.649.824z"/></g></svg>