<svg xmlns="http://www.w3.org/2000/svg" width="169.813" height="159.102" viewBox="0 0 169.813 159.102"><g fill="#666"><path d="M84.009 159.102h-1.433L27.089 121.67H15.704c-4.093 0-7.988-1.577-10.97-4.439C1.681 114.301 0 110.414 0 106.288V58.162c0-4.126 1.681-8.013 4.735-10.945 2.982-2.863 6.877-4.438 10.97-4.438h11.221L82.412 0h1.597c8.482 0 15.383 6.901 15.383 15.383v128.336c0 8.483-6.901 15.383-15.383 15.383z"/><path d="M15.704 52.138c-3.43 0-6.327 2.751-6.327 6.007v48.126c0 3.255 2.897 6.006 6.327 6.006h14.253l55.294 37.303a6.017 6.017 0 0 0 4.764-5.877V15.366a6.015 6.015 0 0 0-4.618-5.844L30.121 52.138H15.704zM122.264 107.005a3.653 3.653 0 0 1-2.674-1.182c-1.479-1.579-1.48-4.14-.003-5.721l19.188-20.55-19.188-20.55c-1.477-1.581-1.475-4.142.003-5.721 1.479-1.579 3.875-1.577 5.351.004l21.858 23.408c1.475 1.58 1.475 4.138 0 5.717l-21.858 23.408c-.739.791-1.708 1.187-2.677 1.187z"/><path d="M166.029 107.005a3.648 3.648 0 0 1-2.677-1.187l-21.858-23.407c-1.475-1.58-1.475-4.138 0-5.718l21.858-23.408c1.477-1.581 3.873-1.583 5.351-.004 1.479 1.579 1.48 4.141.003 5.722l-19.188 20.549 19.188 20.55c1.477 1.581 1.475 4.143-.003 5.721a3.651 3.651 0 0 1-2.674 1.182z"/></g></svg>