<svg xmlns="http://www.w3.org/2000/svg" width="168.773" height="168.792" viewBox="0 0 168.773 168.792"><g fill="#CCC"><path d="M101.076 29.092c.053 0 .102-.02.15-.02v.314h29.721c4.902 0 8.878 3.976 8.878 8.883v29.717h.319c0 .058-.02.102-.02.16a9.5 9.5 0 1 0 19.001 0c0-.058-.015-.102-.015-.16h.015V29.391c0-10.659-8.642-19.301-19.301-19.301h-38.599v.015c-.054 0-.102-.01-.15-.01a9.5 9.5 0 1 0 .001 18.997zm0 0M67.601 140.669c-.054 0-.102.015-.15.015v-.319H37.729a8.876 8.876 0 0 1-8.879-8.878v-26.692c.266-.896.454-1.823.454-2.798a9.874 9.874 0 0 0-9.877-9.876c-5.37 0-9.727 4.299-9.853 9.64h-.023v38.604c0 10.664 8.642 19.301 19.3 19.301h38.6v-.015c.053 0 .102.015.15.015 5.249 0 9.5-4.256 9.5-9.496a9.498 9.498 0 0 0-9.5-9.501zm0 0M166.599 156.534l-30.816-30.783 20.901-20.897-.173-.169c1.264-1.095 2.162-2.572 2.417-4.333l1.037-1.042h-.85c-.029-3.971-3.247-7.189-7.228-7.189H98.813a7.24 7.24 0 0 0-7.237 7.237v53.075c0 4 3.243 7.242 7.237 7.242 1.959 0 3.667-.829 4.931-2.113l.111.111 21.419-21.418 30.813 30.783a7.435 7.435 0 0 0 10.509 0c2.903-2.9 2.903-7.609.003-10.504zm0 0M69.863 10.096c-.12 0-.227.063-.343.067v-.077l-.1.096c-2.017.125-3.73 1.119-4.951 2.552L43.664 33.541 12.687 2.593a7.442 7.442 0 0 0-10.508 0c-2.904 2.905-2.904 7.604 0 10.499l30.977 30.952-20.96 20.96c-1.438 1.221-2.432 2.938-2.557 4.959l-.092.092h.078c-.005.121-.073.227-.073.348a7.24 7.24 0 0 0 7.238 7.237h53.074a7.24 7.24 0 0 0 7.238-7.237V17.329c-.001-3.991-3.244-7.233-7.239-7.233zm0 0"/></g></svg>