<svg xmlns="http://www.w3.org/2000/svg" width="151.624" height="176.764" viewBox="0 0 151.624 176.764"><path fill="#CCC" stroke="#CCC" stroke-width="3" stroke-miterlimit="10" d="M108.929 175.264c-2.466 0-4.944-.208-7.362-.622-9.053-1.543-16.621-5.348-21.617-10.816-2.711.902-5.894.604-7.881-.031-4.971 5.781-13.57 9.782-23.595 10.874-17.753 1.922-31.828-4.039-33.233-13.57-1.162-7.783 7.117-13.895 15.995-17.424-3.894-4.884-6.863-10.543-8.553-16.264-4.833 5.802-8.988 9.497-13.702 8.359-1.57-.374-3.778-1.551-5.4-5.035-3.214-6.887-3.143-21.19 3.318-34.125 2.612-5.231 6.255-9.519 9.291-12.852-1.15-2.453-2.263-5.425-2.263-8.058 0-4.355 1.902-8.151 5.523-11.083-.325-2.484-.482-4.775-.482-6.952C18.97 26.17 43.991 1.5 75.932 1.5c31.61 0 57.326 25.195 57.326 56.164l.01 1.534c.012 1.588.028 3.324-.074 4.986 2.969 2.172 4.74 5.226 4.74 11.516 0 2.64-.226 5.461-1.548 7.666 2.549 3.613 5.354 8.084 7.881 12.11l.543.865c6.065 9.656 6.679 26.471 3.159 34.493-1.58 3.597-3.723 4.689-5.247 4.971-.717.132-1.407.193-2.073.193h-.003c-5.305 0-8.797-3.686-11.858-8.016-1.849 5.529-4.811 11.172-8.288 15.729 10.377 4.25 15.777 10.199 14.959 16.666-1.071 8.485-12.476 14.887-26.53 14.887zm-27.275-20.426l1.693 2.256c3.922 5.229 10.766 8.905 19.273 10.359a38.08 38.08 0 0 0 6.308.531c11.264 0 18.736-3.952 19.298-8.396.49-3.864-4.406-8.375-14.02-11.494l-4.79-1.555 3.505-3.619c5.602-5.781 10.292-15.259 11.405-23.046l1.143-7.997 6.305 9.291c3.012 4.588 5.612 7.546 8.872 7.546h.003c.301 0 .61-.031.933-.089 2.195-1.604 3.477-18.491-3.089-28.945l-.546-.868c-2.981-4.753-6.36-10.138-9.111-13.785l-2.06-2.729 2.894-1.821c.856-.54.985-3.226.985-4.78 0-5.29-1.322-6.045-3.322-7.182l-1.852-1.055.298-2.113c.245-1.748.226-4.06.208-6.097l-.01-1.588c0-27.507-21.898-48.884-50.045-48.884-28.419 0-49.682 20.911-49.682 48.884 0 2.395.221 4.977.681 7.89l.313 2.012-1.705 1.107c-2.913 1.898-4.33 4.194-4.33 7.025 0 1.499.855 3.903 2.542 7.148l.017 1.957-1.5 1.622c-3.164 3.422-7.099 7.682-9.752 12.989-5.235 10.482-5.789 21.975-3.303 27.538.579 1.3 1.113 1.677 1.227 1.708h.022c2.312 0 6.115-3.673 9.792-8.196l6.47-8.897.822 8.407c.87 7.884 6.235 16.669 12.383 22.935l3.656 3.723-5.002 1.487c-9.789 2.906-16.722 8.09-16.13 12.061.84 5.738 11.805 8.721 25.339 7.246 9.355-1.019 17.065-4.824 20.619-10.181l.994-1.497 2.428.132.826.392c.843.409 4.109 1.481 6.568.01l2.427-1.442zm0 0"/></svg>