<svg xmlns="http://www.w3.org/2000/svg" width="52.992" height="49.786" viewBox="0 0 52.992 49.786"><path fill="#CCC" stroke="#CCC" stroke-miterlimit="10" d="M44.664 22.861c-.372 0-.716.155-.965.404a1.358 1.358 0 0 0-.401.959v12.85c0 .368.155.711.405.959h-.004l.004.004c.245.245.589.4.961.4h3.728c.369 0 .708-.159.957-.408l.004.003.003-.003c.246-.245.401-.588.401-.956v-12.85c0-.346-.134-.667-.35-.909l-.054-.051a1.359 1.359 0 0 0-.961-.404c-1.243.002-2.384.002-3.728.002zM30.072 42.473a1.103 1.103 0 0 1-.148-.087 2.212 2.212 0 0 0-1.597-.17 2.214 2.214 0 0 0-1.344 1.028h-.003a2.188 2.188 0 0 0-.289 1.046v.104c.004.181.029.357.076.527.137.519.462.988.943 1.295.058.025.116.061.17.097.509.263 1.077.31 1.597.17a2.205 2.205 0 0 0 1.304-.967c.029-.05.058-.101.09-.148.26-.505.307-1.075.17-1.59a2.197 2.197 0 0 0-.969-1.305zm1.305-2.395a4.918 4.918 0 0 1 2.301 2.997 4.904 4.904 0 0 1-.495 3.736l-.004.007h.004a4.922 4.922 0 0 1-3.002 2.297 4.924 4.924 0 0 1-3.746-.494l-.029-.018a4.927 4.927 0 0 1-2.254-2.889h-8.764c-.051 0-.105-.003-.156-.007-3.045-.09-7.33-.981-10.44-2.975C2.288 41.128.5 38.827.5 35.675V24.224a4.103 4.103 0 0 1 4.1-4.093h.582a21.437 21.437 0 0 1 6.232-13.326A21.505 21.505 0 0 1 26.659.5a21.521 21.521 0 0 1 15.249 6.304 21.452 21.452 0 0 1 6.228 13.326h.256c1.127 0 2.153.465 2.894 1.204.029.029.058.061.087.094a4.087 4.087 0 0 1 1.12 2.795v12.85a4.079 4.079 0 0 1-1.21 2.882l.003.003a4.102 4.102 0 0 1-2.894 1.208h-3.728a4.115 4.115 0 0 1-2.894-1.208v.003a4.085 4.085 0 0 1-1.207-2.889v-12.85a4.103 4.103 0 0 1 4.1-4.093h.737a18.777 18.777 0 0 0-5.426-11.397A18.79 18.79 0 0 0 26.659 3.23a18.782 18.782 0 0 0-13.312 5.504 18.735 18.735 0 0 0-5.419 11.397h.401a4.09 4.09 0 0 1 2.894 1.204.77.77 0 0 1 .087.094 4.087 4.087 0 0 1 1.12 2.795v11.599a1.366 1.366 0 0 1-2.731 0V24.224c0-.346-.137-.667-.354-.909l-.055-.05a1.359 1.359 0 0 0-.961-.404H4.6c-.372 0-.715.155-.964.404a1.358 1.358 0 0 0-.401.959v11.451c0 2.066 1.264 3.632 3.031 4.764 2.663 1.709 6.383 2.474 9.039 2.55l.083-.004h8.768c.108-.375.264-.743.47-1.1v-.003a4.935 4.935 0 0 1 2.998-2.301 4.936 4.936 0 0 1 3.746.498l.004.003.003-.004zm0 0"/></svg>