<svg xmlns="http://www.w3.org/2000/svg" width="69.098" height="87.613" viewBox="0 0 69.098 87.613"><g fill="#FFF"><path d="M40.977 82.613h-2.529v-6.002c6-.558 11.724-3.005 16.334-6.739l-3.888-3.842c-4.29 3.266-9.661 4.996-15.322 4.996-11.622 0-21.979-8.413-24.449-19.413H5.694c2.396 14 13.754 23.778 26.754 24.998v6.002H30.12c-1.499 0-2.713.986-2.713 2.5 0 1.515 1.213 2.5 2.713 2.5h10.857c1.499 0 2.716-.983 2.716-2.5 0-1.513-1.217-2.5-2.716-2.5z"/><path d="M35.498 65.772c4.227 0 8.092-1.411 11.248-3.768L16.448 31.732v14.856c0 10.596 8.557 19.184 19.05 19.184zM63.001 59.187c1.107-2.306 1.932-4.574 2.403-7.574h-5.429c-.255 2-.612 2.34-1.027 3.407l4.053 4.167zM54.087 50.551c.266-1.279.361-2.603.361-3.962V19.183C54.448 8.589 45.993 0 35.5 0c-8.622 0-15.891 5.804-18.214 13.75l36.801 36.801zM68.273 74.071c-1.117 1.116-2.946 1.098-4.086-.043L.868 10.709C-.272 9.569-.291 7.74.825 6.623c1.117-1.116 2.946-1.097 4.086.043L68.23 69.985c1.14 1.14 1.159 2.97.043 4.086z"/></g></svg>