<svg xmlns="http://www.w3.org/2000/svg" width="59.709" height="84.695" viewBox="0 0 59.709 84.695"><path fill="#CCC" d="M32.569 73.61v5.604h2.714c1.499 0 2.716 1.228 2.716 2.741 0 1.516-1.216 2.74-2.716 2.74H24.426c-1.5 0-2.713-1.225-2.713-2.74 0-1.514 1.214-2.741 2.713-2.741h2.715V73.61C13.741 72.39 2.396 62.22 0 49.069h5.429c2.47 10.981 12.804 19.184 24.426 19.184 11.62 0 21.955-8.202 24.426-19.184h5.429C57.314 62.221 45.966 72.39 32.569 73.61zm-2.714-10.838c-10.493 0-18.999-8.588-18.999-19.183V19.183C10.856 8.589 19.362 0 29.855 0c10.493 0 18.998 8.589 18.998 19.183v24.405c0 10.595-8.505 19.184-18.998 19.184zm0 0"/></svg>