<svg xmlns="http://www.w3.org/2000/svg" width="36.108" height="36" viewBox="-148.376 -225.122 36.108 36"><path fill="#FFF" d="M-129.668-191.854c.414-.754 1.153-1.522 1.183-3.68s-1.624-3.636-1.742-3.695c-.118-.06-1.345-.99-3.592-.916-2.247.074-3.474.28-4.183.37-.71.09-2.188.28-2.986.28s-1.936-.25-2.44-.502c-.502-.25-1.7-1.12-2.2-2.082s-.728-2.043-.728-2.043l6.356-2.854s.754-.384 1.064-.77c.31-.383.473-.753.473-.753s.03-1.153.325-1.907c.296-.754.798-1.094.798-1.094l3.09-2.69s-1.474-1.59-1.745-2.927c-.6-2.975-.325-5.655-.325-5.655s1.294 2.865 1.596 3.387c.467.806 1.187 1.574 1.187 1.574s.017-.742.517-1.964c.19-.463 1.293-2.266 1.293-2.266s.433 1.45 1.053 2.205c.455.552.76.688 1.554 1.052.932.427 1.417 1.21 1.92 2.077.097.167.28.517.28.517s2.502.316 5.178 1.38c2.676 1.065 5.262 2.987 5.262 2.987l-2.87.562s2.72.62 4.732 2.29c1.686 1.4 2.332 2.154 2.347 2.17l.003-.27c-.002-9.967-8.085-18.051-18.055-18.051s-18.053 8.083-18.053 18.053c0 9.31 7.046 16.972 16.096 17.947.02-.02 2.2-1.982 2.612-2.732z"/></svg>