<?xml version="1.0" encoding="utf-8"?>
<!-- Generator: Adobe Illustrator 17.0.0, SVG Export Plug-In . SVG Version: 6.00 Build 0)  -->
<!DOCTYPE svg PUBLIC "-//W3C//DTD SVG 1.1//EN" "http://www.w3.org/Graphics/SVG/1.1/DTD/svg11.dtd">
<svg version="1.1" id="图层_1" xmlns="http://www.w3.org/2000/svg" xmlns:xlink="http://www.w3.org/1999/xlink" x="0px" y="0px"
	 width="104.478px" height="36px" viewBox="324.452 -154.781 104.478 36" enable-background="new 324.452 -154.781 104.478 36"
	 xml:space="preserve">
<metadata><?xpacket begin="﻿" id="W5M0MpCehiHzreSzNTczkc9d"?>
<x:xmpmeta xmlns:x="adobe:ns:meta/" x:xmptk="Adobe XMP Core 5.5-c014 79.151739, 2013/04/03-12:12:15        ">
   <rdf:RDF xmlns:rdf="http://www.w3.org/1999/02/22-rdf-syntax-ns#">
      <rdf:Description rdf:about=""
            xmlns:xmpMM="http://ns.adobe.com/xap/1.0/mm/"
            xmlns:stRef="http://ns.adobe.com/xap/1.0/sType/ResourceRef#"
            xmlns:stEvt="http://ns.adobe.com/xap/1.0/sType/ResourceEvent#"
            xmlns:xmp="http://ns.adobe.com/xap/1.0/"
            xmlns:xmpGImg="http://ns.adobe.com/xap/1.0/g/img/"
            xmlns:pdf="http://ns.adobe.com/pdf/1.3/"
            xmlns:dc="http://purl.org/dc/elements/1.1/"
            xmlns:xmpTPg="http://ns.adobe.com/xap/1.0/t/pg/"
            xmlns:stDim="http://ns.adobe.com/xap/1.0/sType/Dimensions#"
            xmlns:xmpG="http://ns.adobe.com/xap/1.0/g/">
         <xmpMM:RenditionClass>proof:pdf</xmpMM:RenditionClass>
         <xmpMM:DocumentID>xmp.did:06057372-6558-2c48-871e-223ea05f2c7c</xmpMM:DocumentID>
         <xmpMM:InstanceID>xmp.iid:06057372-6558-2c48-871e-223ea05f2c7c</xmpMM:InstanceID>
         <xmpMM:OriginalDocumentID>uuid:d4223496-a638-4d65-a65a-dba3a821b7bc</xmpMM:OriginalDocumentID>
         <xmpMM:DerivedFrom rdf:parseType="Resource">
            <stRef:instanceID>xmp.iid:b784acbc-c0d5-4841-8ea4-be249a281832</stRef:instanceID>
            <stRef:documentID>xmp.did:b784acbc-c0d5-4841-8ea4-be249a281832</stRef:documentID>
            <stRef:originalDocumentID>uuid:d4223496-a638-4d65-a65a-dba3a821b7bc</stRef:originalDocumentID>
            <stRef:renditionClass>proof:pdf</stRef:renditionClass>
         </xmpMM:DerivedFrom>
         <xmpMM:History>
            <rdf:Seq>
               <rdf:li rdf:parseType="Resource">
                  <stEvt:action>saved</stEvt:action>
                  <stEvt:instanceID>xmp.iid:b784acbc-c0d5-4841-8ea4-be249a281832</stEvt:instanceID>
                  <stEvt:when>2016-04-21T17:39:49+08:00</stEvt:when>
                  <stEvt:softwareAgent>Adobe Illustrator CC (Windows)</stEvt:softwareAgent>
                  <stEvt:changed>/</stEvt:changed>
               </rdf:li>
               <rdf:li rdf:parseType="Resource">
                  <stEvt:action>saved</stEvt:action>
                  <stEvt:instanceID>xmp.iid:06057372-6558-2c48-871e-223ea05f2c7c</stEvt:instanceID>
                  <stEvt:when>2016-04-22T14:13:20+08:00</stEvt:when>
                  <stEvt:softwareAgent>Adobe Illustrator CC (Windows)</stEvt:softwareAgent>
                  <stEvt:changed>/</stEvt:changed>
               </rdf:li>
            </rdf:Seq>
         </xmpMM:History>
         <xmp:CreateDate>2016-04-22T14:13:20+08:00</xmp:CreateDate>
         <xmp:CreatorTool>Adobe Illustrator CC (Windows)</xmp:CreatorTool>
         <xmp:ModifyDate>2016-04-22T14:13:20+08:00</xmp:ModifyDate>
         <xmp:MetadataDate>2016-04-22T14:13:20+08:00</xmp:MetadataDate>
         <xmp:Thumbnails>
            <rdf:Alt>
               <rdf:li rdf:parseType="Resource">
                  <xmpGImg:width>256</xmpGImg:width>
                  <xmpGImg:height>88</xmpGImg:height>
                  <xmpGImg:format>JPEG</xmpGImg:format>
                  <xmpGImg:image>/9j/4AAQSkZJRgABAgEASABIAAD/7QAsUGhvdG9zaG9wIDMuMAA4QklNA+0AAAAAABAASAAAAAEA&#xA;AQBIAAAAAQAB/+4ADkFkb2JlAGTAAAAAAf/bAIQABgQEBAUEBgUFBgkGBQYJCwgGBggLDAoKCwoK&#xA;DBAMDAwMDAwQDA4PEA8ODBMTFBQTExwbGxscHx8fHx8fHx8fHwEHBwcNDA0YEBAYGhURFRofHx8f&#xA;Hx8fHx8fHx8fHx8fHx8fHx8fHx8fHx8fHx8fHx8fHx8fHx8fHx8fHx8fHx8f/8AAEQgAWAEAAwER&#xA;AAIRAQMRAf/EAaIAAAAHAQEBAQEAAAAAAAAAAAQFAwIGAQAHCAkKCwEAAgIDAQEBAQEAAAAAAAAA&#xA;AQACAwQFBgcICQoLEAACAQMDAgQCBgcDBAIGAnMBAgMRBAAFIRIxQVEGE2EicYEUMpGhBxWxQiPB&#xA;UtHhMxZi8CRygvElQzRTkqKyY3PCNUQnk6OzNhdUZHTD0uIIJoMJChgZhJRFRqS0VtNVKBry4/PE&#xA;1OT0ZXWFlaW1xdXl9WZ2hpamtsbW5vY3R1dnd4eXp7fH1+f3OEhYaHiImKi4yNjo+Ck5SVlpeYmZ&#xA;qbnJ2en5KjpKWmp6ipqqusra6voRAAICAQIDBQUEBQYECAMDbQEAAhEDBCESMUEFURNhIgZxgZEy&#xA;obHwFMHR4SNCFVJicvEzJDRDghaSUyWiY7LCB3PSNeJEgxdUkwgJChgZJjZFGidkdFU38qOzwygp&#xA;0+PzhJSktMTU5PRldYWVpbXF1eX1RlZmdoaWprbG1ub2R1dnd4eXp7fH1+f3OEhYaHiImKi4yNjo&#xA;+DlJWWl5iZmpucnZ6fkqOkpaanqKmqq6ytrq+v/aAAwDAQACEQMRAD8A9U4q7FWK+b/zH8v+WgYZ&#xA;nN1qNKrZQkFhXp6jdEHz39swdX2hjw7HeXc7PQ9k5dRuPTDvP6O95Prn5w+cNTLraSLptt/Jbir0&#xA;6fFK1W+leOaDN2tmny9I8v1vVabsHT4/qHGfP9X9rDrzVNTvmLXl3NdMepmkeQn/AIInNfPJKX1E&#xA;l22PDCH0gD3CkMCQQQaEbgjK2xN9M83+aNMYGx1S4iVekfqFo/8AgG5J+GZGPV5YfTIuLm0GDJ9U&#xA;In4fpZ/5b/PO8jZIPMFqJ49gby3HCQe7Rn4W/wBjx+WbbT9tEbZBfmHQ6v2bid8Ro9x/X/a9a0jW&#xA;dL1iyW9025S5tn2Doeh8GBoVPsRm/wAWaOSPFE2Hls+nnilwzFFGZY0uxV2KuxV2KuxV2KuxV2Ku&#xA;xV2KuxV2KuxV2KuxV2KuxV2KuxV2KuxV2KuxV5l+Z/5ntpTPouiuP0jSl3dihEII+wn/ABZ4n9n5&#xA;9NJ2l2l4foh9XU937XpOx+x/F/eZPo6Dv/Z97xGSSSWRpJGLyOSzuxJJJ3JJOc0Te5ezAAFBm35a&#xA;eWovMEev2DECaSyAt3bosnqq6GvUDkgr7ZsuztOMonH+j+l03a+rOA459OLf3V+1O/ye8lpNquo3&#xA;urW1W01japbyioE7AiSo8UXb6a5ldk6O5ylMfTt8XC7e7QrHGOM/Xvfl0+f6GNeefy91by3ezSpC&#xA;8+jlqwXijkFUnZZafZYdN9j2zC1ugnhkTVw7/wBbsuze1ceoiATWTqP1MRzXu1diqb+WfNOr+XNQ&#xA;W906XiTQTQNUxyr/ACuv8eozI02pnhlxRcTWaLHqIcMx8eofRnlLzVp3mXSUv7M8XHw3NuTVopO6&#xA;n28D3GdhpdVHNDiHx8nz7XaKenycEvge8J1mS4bsVdirsVdirsVdirsVdirsVdirsVdirsVdirsV&#xA;dirsVdirsVdirsVYr+Y/m8eWvL7zQkfpG6JhslO9GI+KSngg3+dMwe0NX4OOx9R5Oz7J0P5jLR+i&#xA;O5/V8XzdJJJLI0kjF5HJZ3Y1JJNSSTnGk3uX0QAAUFuBLM/yn8xQaL5ti+ssEtb5DayudgpchkY/&#xA;7JQPpzZdl6gY8wvlLZ0/belObTnh+qO/630NFbwRPK8cao87epMygAu4UJybxPFQM64RA5dXgTIm&#xA;gTyXSxRyxtFKgkjcFXRgCrA7EEHqMSARRQCQbHN4h5o/JjX01W6l0KGObTnbnbQmVVkUEVKfHxGz&#xA;VA+LpnM6nsjJxk4xcem72mj9oMRxgZSRPrt+pg+r+WPMGjmmp6fNbL0EjqTGT7OKofvzWZdNkx/V&#xA;Eh3WDWYsv0SB/HcleUOSyPyH5tn8s69Fdgk2U1Ir6Ib8oiftAfzJ1H3d8zNDqjhyX/D1dd2noRqc&#xA;Rj/EPp9/7X0xFJHLGksbB45AGR1NQVIqCDnaA2LD5yQQaK7Chhfnz80tI8mXdrbX1pcXD3cbSo0H&#xA;CgCtxoeTLirF/wDoZHyt/wBWy+/5I/8ANeKu/wChkfK3/Vsvv+SP/NeKu/6GR8rf9Wy+/wCSP/Ne&#xA;Kpjqn57eXdOstMu5dPu3TVLc3MKr6VVVZXio1X61jPTFUu/6GR8rf9Wy+/5I/wDNeKu/6GR8rf8A&#xA;Vsvv+SP/ADXiqJ03/nITyzf6ja2Mem3qSXc0cCM3pcQ0jBQTR+m+Ks68z+bdG8s2cd7q7yRWsj+m&#xA;JUieUBiKgNwB417VxVjP/K9fy2/6uEv/AEjzf804ql+s/wDOQPk/TtSms4YLjUI4uNLu29MxPyUN&#xA;8JZlO1adMVRmm/nXoF7oGqa4bG6gsdMMSMZPTrLLMaLHFR92HU+AxVJv+hkfK3/Vsvv+SP8AzXir&#xA;0fyvr6eYNDttXjtpbSG7BeGKfjz4AkBjxLCjUqPbFU1xV2KoDXNTuNNsDdW9hPqUgZV+q2oUyEH9&#xA;r4yooPnirEbf81Z7jUbrTYPK2qyX9iEN3bgQcoxKvJOX7z9pd8VTBfzH0seb7PyrcWs9tqF5Ak6N&#xA;Jw4KzxmT0moxPIcSPniqI89efNJ8m6dBeahHJP8AWZfSigh48zRSzN8RUUFPxxV5D+cWutqXm+W1&#xA;Rq2+mKLdAOnM/FKfnyPH6M5LtbPx5q6R2/W972DpvD04l1nv+r8ebBc1bu3YqynyP5A1XzTdVStv&#xA;psRpcXrCor/JGP2n/V3zO0WhnnPdHvdZ2j2pDTR33meQ/X5Po2ws0srKC0jd5Et0WNZJWLyMFFKs&#xA;x6nOwhDhiB3PnuXIZyMj17lfJsHYqtkjjkRo5FDowoyMKgg9iDgItIJBsPPPOH5O6HqMUl1o/HTL&#xA;0AtwH+8zn3X/AHX8129s1Gr7JhMXD0y+z9jv9B29lxkRyeuP+y/b8fm8Pv7G5sLyWzuVCzwtxcKw&#xA;cV9mUkEe4zmZwMSQeYe0xZBOIlHkXvf5N662peUUtZWLT6a5tzXr6dOUf0AHiPlnVdkZ+PDR5x2/&#xA;U8N2/pvD1HEOU9/j1/X8WdZtHSPAP+clP+O5o3/MNJ/ycxVhfkmPTm8vebjdrC0y6eptDKFLB/VH&#xA;93y35U8MVS3yGto/nTRVvBG1qbyETLNQxlOYry5bU+eKoPzKIF8x6qIAogF5cCIJTgE9VuPGm1Kd&#xA;KYq9ftLT8urf8svLGs+b9MnvQUks4ZYHlHH99LIFYJLEN/ixV3lm2/IHzFrMGkWOi3Md3cBvS9eW&#xA;5RCUUuRUXDb0U4qhPzq8m+QvK2h2a6Tpot9VvpqRyGe4crDEKyHjJI69WUdO+KsK/KTQDrfn3TIS&#xA;CYLR/rtwR2W3o619mk4r9OKvqfV9JsNX02403UIhNZ3SFJYz4HuD2IO4PY4q+Q/Oflr/AA35iu9K&#xA;FzHdxQtWGeJ1blG32eYUni46Mp7+1MVSVEd3VEUs7EBVAqST0AGKsv8AOWojT9G0/wAlQwS2z6U7&#xA;z6x6oUerfybFl4s1URPhRjQkdsVSDy/5e1bzBqkWl6VD695KGZUqFACAsSzNQAbd8VZd/wAqK/Mn&#xA;/q3xf9JEP/NWKpD5q8g+Z/KsdtJrVusC3ZZYCsiSVKAFvsE0+0MVRP5V/wDkw9C/5iR/xE4q+uMV&#xA;YB5V/wDJu+eP+MWm/wDUMMVYp5/0+5l86+YNUshXUdBs9P1S1I6/6PITIDTt6Zao74qhPzSv7fzV&#xA;p2saxbn1NM0PT7FbQnobrUriCV2B8Vg4q3zxVgOqXjXup3d4xq1zNJMx8TI5b+OcFlnxSMu8vqeH&#xA;HwQjHuACFyttVbW3e5uobeP7czrGnzcgD9eSjHiIHewnMRiSej6w0+wtNPsYLG0jEVtboI4kHYD+&#xA;J753mPGIRERyD5dlyyySMpGyURk2t2KuxV2KoHV9C0fWIPQ1O0juox0DjcV/lYUZfoOVZcEMgqQt&#xA;vwanJiNwkYl5h5v/ACRjET3flqRua1Y6fM1ajwikPf2f780mr7G2vF8v1PSaH2iN8Ob/AEw/SP1f&#xA;JC/kXNcWuvavpc6NFI0CySQuCrK0MnAgqehHq5DsQmOSUT3fd/a2+0kRLFCY33+8fsez50bx7wD/&#xA;AJyU/wCO5o3/ADDSf8nMVeceX/LH6X0vW776z6H6Gthdenw5+rV+PGvJePzocVQnlvR/01r+n6T6&#xA;31f69OkHrcefDm1OXGq1p4VxVQ1ax/R+q3lhz9X6pPLB6lOPL0nKcqVNK06VxV6hrPmnQIPyb0jy&#xA;1fQ3DX95am7sZ4kRokdLqQDmWdWFeLA0U7HFXmmgavPo2t2OqwV9SynjmCg05BGBK/JhtirJPzU8&#xA;9wecfMUd7ZpLDp9tAsNvFOFV61LOxVWdQSzU69AMVTv8kfOXlzy5qE8V9Bcy6nq0sFpbPCkbRoha&#xA;nxM0iN8TsK0U9MVRH59+YNcTzhJpUd/PHpq28TfVEkZYizA1LKpAb6cVeXiyvDaG8EEhtAwQ3HBv&#xA;TDnovOnGu3TFURoX/Hc07/mJh/5ODFXon5yavaWX5gahCdHsblikDPPOs5kYmFevCVF9umKpR5S8&#xA;4+Z9OuJb7yz5btfWK+jNPbWtzOQrENxJ9R6V4g4qmf8A0MN59/33Y/8AIl/+qmKo784NZu9a8i+T&#xA;dVvAgurxbiSURgqnIhBsCTirDfyr/wDJh6F/zEj/AIicVfXGKpPp/lfT7HzHquvwySteausC3Mbl&#xA;TEot0EacAFDCoG9WOKuTytpq69f60xkkuNRtks7mByph9JK9F48qmu9WxVJbf8qvLVv5MvPKUUt0&#xA;un30onuJ+cZuC6ujijenwoPSUfZ6Yq+dSCCQRQjYg558+rsq8t/ln5r17jLFbfVLNv8Aj7uaxqR/&#xA;krQu30Cnvmfp+zsuXcCh3l1mr7XwYNieKXcHrXlL8pvL+gzRXszNqGoxENHNJ8MaMOhSME7j/KJz&#xA;f6XsvHiIkfVJ5XXduZc4MR6YHp+1nGbN0rsVdirsVdirsVdiqVr5d0+PzGdfiX072S2a1uOPSRS6&#xA;MrN/lL6dPl8soGniMniD6qr7nJOrmcPhH6eKx5c/1ppl7jPGPz48oeZtd1fS5dI06W9jht3SVogC&#xA;FYvUA1IxV5jNof5geVNH1BrnT5bHTtRjW1vZJUQhlLVVQTUg1HbFWO6RqF7p2qWt9YNxvbaVZLdi&#xA;A1JFNV2Ox3xVkt5+W35lXl5Pd3Gh3LT3MjyysFUAu7FmNAfE4q9k8s/lPoWq+UNDTzRp8q6nZW7w&#xA;GMyvGUUzySAEIwH7dcVeMfmp5e0vy/50u9L0uMxWcSQsiMzOQXiVm+JiT1OKoDQ9Jsbvy35kvp0L&#xA;XOnQWslowYgK0t3HE9QNj8DHriqG8p/8pTo3/Mdbf8nlxV9U655e8hR6g3mDXrayF1xVPrd8ylAE&#xA;Hw0WU+mCPYVxV5b+dH5ieTtZ8tR6Hot19aniuY5SYo2WFURWFAxCg/aH2a4q8h0L/juad/zEw/8A&#xA;JwYqzH89f/Jk6h/xit/+TK4q9A/5xr/44es/8xMf/JvFXgGKvTfzD/8AJXeQ/wDjFP8A8aYqxz8q&#xA;/wDyYehf8xI/4icVfXGKuxV2KuxV4LoDaX5b/NW7tNVgia0a4lhikmVSIfVYPBKOQ+Hagr2BzlcH&#xA;Dh1RExtZ+HcXudUJ6jQiWMnioHbrXMPes6p4Z2KuxV2KuxV2KuxV2KuxV2KuxV5p+b/mfz7otzpi&#xA;+VopZI50lN16Vt9YoVK8Kni/HqcVeReb/OX5n6tozWfmKGZNNMiMzSWfoLzU/D8fBf14qweJpElR&#xA;o/7xWBTau4O22KvU/wDlZP55f8s1z/3Dh/1SxV7n5KvtVvvKum3mrqy6lNCGuldPSYPU9UoOP3Yq&#xA;+dvz1/8AJk6h/wAYrf8A5Mriqt+UvlmTzPY+ZtDjuBavd21tSdl5hfSukl+yCta8KdcVZhpH/OO1&#xA;7p+rWV+dcjkFpcRTmMW7AsI3D0r6hpWmKsT/AD6SWX8xnijVpHNtAERQSSSDsAMVYff+TPNOnaSN&#xA;W1DTZrOwZ1jWWdfTJZwSoCNR9wp3pTFUJoX/AB3NO/5iYf8Ak4MVZj+ev/kydQ/4xW//ACZXFXoH&#xA;/ONf/HD1n/mJj/5N4q8AxV6b+Yf/AJK7yH/xin/40xVjn5V/+TD0L/mJH/ETir64xV2KuxV2KvGf&#xA;zz8tNHeWvmCBP3U4FteEdpFFY2P+svw/7EeOc521p6IyDrsXr/ZvV3E4jzG4/T+PNKfK35ya5o1m&#xA;lle266nbQjjCzuY5VUdF9Sj1A7VWvvmPpu15448MhxD7XL1vYGLNLiieAn4j5Jxcfn9eMP8AR9Gj&#xA;jP8AxZO0n6kjzJl26ekPt/Y4kfZiPWZ+X7Sldx+efm6Soit7KEdiI5Gbp4tIR+GUS7azHkIj8e9y&#xA;YezenHMyPxH6llt+d/nKJwZUtLha7q8TLt7FGXBHtnMOdFlP2d055cQ+P7HpnkT8x9O81K9uY/qm&#xA;pxLze2LclZa05RttWncEbZutD2hHPtyl3PN9pdkz0298UD1/Wy/Ng6l2KuxV2KuxV2KvM/O/522v&#xA;lXzFPosmkvdtAsbGdZggPqIH+yUbpXxxV53+Yf50W3m3y2+jx6U9ozyxy+s0wkH7s1pxCL1+eKvM&#xA;LeX0p45aV9NlanjQ1xV7r/0MvY/9WCX/AKSV/wCqeKs28q/mdY655R1DzNLZS2lpp0skc8Sn134x&#xA;RpIzigTYCTf5Yq+fPzR8x6Z5j85XeraaztaTJCqGReDVSNVOx9xirOP+ca/+O5rP/MNH/wAnMVe/&#xA;4qlurCHTrW+1m209LnUIoGchAqTTCJSRH6nFj0+zir5+/Mf847bzh5fXSY9LezZbhJ/WaYSCiKwp&#xA;QIv82KvPtC/47mnf8xMP/JwYq95/ML8lNU80+abnWbfUoLaKdIlEUiOzD04wh3G3bFUk0z/nHC+i&#xA;1G1lv9Ugmso5Ua5hRHDPGrAsoJ2HIbYqhv8AoWvXP+rzbf8AIuTFWOfmJrmkSeW9A8s2sskt95fa&#xA;4t74vE0Q51C7BvdTiqU/lX/5MPQv+Ykf8ROKvrjFXYq7FXYqg9Z0iy1jS7nTb1edtcoUcDqO4Ye6&#xA;kAjK82KOSJjLkW7T55YpiceYfM3mnyzqPlzV5dOvVrx+KCYCiyxk/C6/xHY5xWp00sM+GX9r6Pot&#xA;ZDUYxOPx8ik+Y7luxV2Ksg8gXU9t500aSCvNrqOJqfySt6b/APCscy9DIxzQrv8AvcDtSAlppg/z&#xA;Sflu+nc7Z82dirsVdirsVdirF9d/LHyPr2pSanq2m/Wb2UKskvr3EdQihV+GORV2A8MVS/8A5Ul+&#xA;WH/Vl/6ebv8A6q4q7/lSX5Yf9WX/AKebv/qrirv+VJflh/1Zf+nm7/6q4qyDQvKHlzQdLn0rSrMQ&#xA;afcu8k8BeSUM0iCNqmVnO6qBSuKsf/5Ul+WH/Vl/6ebv/qriqceWvIXlPyzPNPolj9UluFCTN6s0&#xA;nJQagUldwN/DFWQYq7FWEy/kt+WckjyPow5OSzUuLpRUmpoBKAPoxVuD8mfy1t5454tH4yxMrxt9&#xA;ZujRlNQaGWnXFWa4q7FXYqxLVvyn/L/VtRn1G/0kS3ly3OeUT3EfJqUrxSRVHTsMVa0r8pvy/wBJ&#xA;1GDUdP0r0by2bnBL9YuX4sNq8XkZT9IxVl2KuxV2KuxV2KpL5q8paT5l042d+lHWpt7lf7yJj3U+&#xA;HiOhzG1WlhmjUvn3OZotdk08+KHxHQvn/wA2+Q9e8szkXcXrWRNIr6IExNXoG/kb2P0Vzk9VocmE&#xA;7/T3vd6HtPFqR6TUv5vX9rHMw3YuxVn/AOTnlm41LzKmqOtLHSzzZyNmmIIjQe4ryPy9823ZGmM8&#xA;vH/DH73Rdv6wY8PB/FP7uv6nv2dW8I7FXYq7FXYq7FXn3nXzN500rWJ0sjBHpwjiNnH6C3N1cMa+&#xA;uYovrEDsIti3EE74qlHlC787TnVrXRtdtr2OBY9SjNzZzVb9ICSVYo/UnWRFrHsH/m8MVek6BNqs&#xA;2iWMurxCDU3hRryFdlWUj4gKFuh98VSb8w9V1DTdHtJLG+GmvcahaWst6VicRxTyhJGpMGTZTXfF&#xA;WK+W/PPm06nqOlxta+ZeN5JBp93Ld29i8qxRJI4jjhhZZAobkWHjiqc/llqPmC6GsJqNisNuup35&#xA;E/1n1mWX6wQ0ATgvwx7gPXenQYqznFXmXmnWvMr+ctR020vdVisrOC1kji0mzguaNMH5mVpByFeA&#xA;47+OKoa3kvVuYri5m87XDRSCQRCGKKJuJDcXRFHIVG4rSm2KvVUbkitQryANDsRXxxVhP5o32sLa&#xA;2GmaTLFb3t47zw3Ms0sJQ2IW5P8AdxurqURuSsR7V7KvPNW/MbUtRmllGoWQtp7jT762gN68PoC3&#xA;RWmhCtCGpK9ak/ccVem/lv5gk1vSry4nvIrq4+uTuY4ZfWWCKVi8MPPileC7dMVZTcXENtby3E7i&#xA;OCFGklkPRUUVYn5AYq8yuPNHliW4llT8yLiFJHZlhRbbigJqFXlATQdNziqYeWvMvlz9MQRr55l1&#xA;iWc+lDYTCAK7vstPThjavhvir0HFXYq7FXYq7FXYqtkijljaOVBJG4KujAFSD1BBwEA7FIJBsMH1&#xA;38m/KOpM0tqj6bOxrW3I9Ov/ABjaoA9lpmsz9kYZ7j0ny/U7rTdv6jHtL1jz5/P9dsUb8g70XaBd&#xA;Wjaz5fvHMTLIF/yVqyk/7LMD+Q5X9W3udp/onjw/QeL37PV9E0XTtF02LTtPiEVtCNh1ZmPVmPdj&#xA;3Ob7DhjjiIxGzy+o1E80zOZslHZa0OxV2KuxV2KuxV5R+aEmlahqr6ZPq0k97Dwe10S00wXV2jEK&#xA;eUc4KMnI0P2xiqT2a/mdod/e65rT3NlFqywtc3lpaW180awKUiWeFSrR8VO5QEb+OKvYNAuDc6LZ&#xA;XJvP0gJolkW99L0PVVxyV/T241B6YqkH5m2t1caLYJbWJ1F01SxdrKg4yKswLK5IKqp6MW2A64qx&#xA;DTNO0vT7bU9U80W8nlaO11+O808xr8KMIUHCN40KvHIAytxHE4qzD8tJBPo2oXyKwtr/AFW/urR3&#xA;UoXhluGZHAYA0YYqy3FXiPme5lutT1HWo3vYtO1HzFYaXSxMq3E0NjazpN6Qjo7cpHNKdaYqi2Gn&#xA;2ms6C2mjzLbyy6pbRStqn1xLdomJ5IfVohJoNsVex4q8/wDzg0jWtY0uzstFsrmfUlkkkhuYREI0&#xA;VomgkjkeSSPhzWXYgHpirznVtP8AMt29yJBqFq2jNOLfT7e6lmhtHstNie1KGOiK/JjuoHUjFXpH&#xA;5NX15e+XdRmuL24v4v0lKtpc3UskzGFYYaBXkJPEPy+muKs+IDAgioOxB6EYq8ljutRv/OL6xq/l&#xA;LVDY6WWi0Wxgt4OHJqh7iYvJGHc0+ECqr413xVMvIGr6xDrc+h63pV5HDPJNcaJqN7CnrGNTyaKZ&#xA;o+aBk5fCa+3gMVekYq7FXYq7FX//2Q==</xmpGImg:image>
               </rdf:li>
            </rdf:Alt>
         </xmp:Thumbnails>
         <pdf:Producer>Adobe PDF library 10.01</pdf:Producer>
         <dc:format>image/svg+xml</dc:format>
         <xmpTPg:MaxPageSize rdf:parseType="Resource">
            <stDim:w>104.478004</stDim:w>
            <stDim:h>36.000001</stDim:h>
            <stDim:unit>Pixels</stDim:unit>
         </xmpTPg:MaxPageSize>
         <xmpTPg:NPages>1</xmpTPg:NPages>
         <xmpTPg:HasVisibleTransparency>False</xmpTPg:HasVisibleTransparency>
         <xmpTPg:HasVisibleOverprint>False</xmpTPg:HasVisibleOverprint>
         <xmpTPg:PlateNames>
            <rdf:Seq>
               <rdf:li>Cyan</rdf:li>
               <rdf:li>Magenta</rdf:li>
               <rdf:li>Yellow</rdf:li>
               <rdf:li>Black</rdf:li>
            </rdf:Seq>
         </xmpTPg:PlateNames>
         <xmpTPg:SwatchGroups>
            <rdf:Seq>
               <rdf:li rdf:parseType="Resource">
                  <xmpG:groupName>默认色板组</xmpG:groupName>
                  <xmpG:groupType>0</xmpG:groupType>
               </rdf:li>
            </rdf:Seq>
         </xmpTPg:SwatchGroups>
      </rdf:Description>
   </rdf:RDF>
</x:xmpmeta>
                                                                                                    
                                                                                                    
                                                                                                    
                                                                                                    
                                                                                                    
                                                                                                    
                                                                                                    
                                                                                                    
                                                                                                    
                                                                                                    
                                                                                                    
                                                                                                    
                                                                                                    
                                                                                                    
                                                                                                    
                                                                                                    
                                                                                                    
                                                                                                    
                                                                                                    
                                                                                                    
                           
<?xpacket end="w"?>
	</metadata>
<g>
	<g>
		<path fill="#555555" d="M365.28-123.671h4.74v0.734h0.585v-1.296h-2.443l-0.027-0.06c-0.084-0.185-0.213-0.408-0.38-0.662
			c-0.022-0.06-0.045-0.1-0.073-0.13l-0.055-0.057l-0.5,0.208l0.068,0.115c0.05,0.084,0.116,0.208,0.198,0.373
			c0.04,0.08,0.077,0.152,0.11,0.213h-2.81v1.295h0.587v-0.736V-123.671z"/>
		<path fill="#555555" d="M368.525-123.381v-0.117h-0.586v0.116c0,1.004-0.074,1.74-0.22,2.19h-3.152v0.562h2.874
			c-0.403,0.54-1.354,0.958-2.832,1.242l-0.217,0.038l0.155,0.154c0,0,0.01,0.014,0.025,0.06l0.02,0.037
			c0.09,0.108,0.12,0.173,0.13,0.208l0.028,0.11l0.11-0.025c1.383-0.313,2.348-0.747,2.868-1.29c0.212,0.097,0.49,0.23,0.84,0.396
			c0.705,0.303,1.283,0.567,1.718,0.784l0.095,0.047l0.326-0.53l-0.12-0.055c-0.443-0.197-1.05-0.455-1.85-0.786l-0.66-0.298
			c0.013-0.02,0.025-0.043,0.037-0.07l0.008-0.02h2.636v-0.56h-2.42C368.463-121.678,368.525-122.398,368.525-123.381z"/>
		<path fill="#555555" d="M365.502-122.514l-0.303,0.475l0.12,0.056c0.432,0.2,0.837,0.42,1.204,0.652l0.097,0.06l0.335-0.503
			l-0.11-0.06c-0.457-0.254-0.878-0.47-1.25-0.64L365.502-122.514z M367.202-122.211l0.35-0.523l-0.146-0.048
			c-0.04-0.015-0.102-0.045-0.185-0.095c-0.424-0.22-0.76-0.397-1.014-0.532l-0.09-0.048l-0.31,0.442l0.112,0.063
			c0.422,0.237,0.82,0.465,1.19,0.684l0.093,0.055V-122.211z M375.717-119.209h0.56v-0.583h1.114v0.506h0.585v-5.227h-2.26v5.302
			L375.717-119.209z M376.277-122.432v-1.545h1.114v1.544L376.277-122.432L376.277-122.432z M377.391-121.898v1.544h-1.114v-1.544
			H377.391L377.391-121.898z M380.944-125.121h-0.56v1.42h-2.283v0.537h2.28v3.262c0.007,0.128-0.02,0.224-0.077,0.284
			c-0.065,0.068-0.178,0.102-0.337,0.102h-1.125l0.05,0.15c0.032,0.094,0.056,0.206,0.072,0.334l0.013,0.1h1.019
			c0.336-0.01,0.587-0.1,0.746-0.27c0.143-0.153,0.212-0.366,0.202-0.63v-3.334h0.887v-0.536h-0.888v-1.42L380.944-125.121z"/>
		<path fill="#555555" d="M379.152-120.783l0.505-0.294l-0.04-0.094c-0.12-0.272-0.32-0.644-0.59-1.102
			c-0.066-0.115-0.116-0.206-0.148-0.272l-0.053-0.108l-0.487,0.265l0.056,0.102c0.302,0.553,0.54,1.02,0.706,1.387L379.152-120.783
			L379.152-120.783z M388.579-118.879h0.586v-0.406h2.736v0.406h0.585v-2.87h-3.908L388.579-118.879L388.579-118.879z
			 M391.901-121.187v1.39h-2.737v-1.39H391.901L391.901-121.187z"/>
		<path fill="#555555" d="M388.102-123.981c1.433-0.068,2.95-0.186,4.51-0.35l0.156-0.016l-0.248-0.58l-0.087,0.012
			c-1.577,0.2-3.194,0.32-4.805,0.354l-0.113,0.002v1.964c0,0.85-0.05,1.506-0.15,1.954c-0.097,0.456-0.296,0.912-0.592,1.355
			l-0.053,0.08l0.068,0.066c0.04,0.04,0.112,0.095,0.22,0.167c0.062,0.042,0.08,0.057,0.083,0.06l0.106,0.11l0.077-0.13
			c0.345-0.586,0.57-1.126,0.673-1.608c0.103-0.48,0.155-1.17,0.155-2.054v-0.062h4.97v-0.56h-4.97V-123.981z M400.152-123.851
			h-0.825l0.193-0.065l-0.034-0.108c-0.085-0.272-0.215-0.61-0.384-1l-0.042-0.097l-0.528,0.176l0.054,0.117
			c0.116,0.25,0.242,0.578,0.376,0.977h-1.02v0.536h2.21L400.152-123.851L400.152-123.851z M403.802-124.741h-0.56v0.99h-0.834
			v-1.37h-0.56v1.37h-0.835v-0.99h-0.561v1.526h3.35 M399.48-120.318c0.232-1.01,0.414-1.853,0.54-2.51l0.024-0.116l-0.533-0.09
			l-0.022,0.113c-0.115,0.615-0.27,1.376-0.467,2.265l-0.014-0.084c-0.117-0.632-0.27-1.35-0.458-2.135l-0.025-0.106l-0.502,0.09
			l0.024,0.115c0.016,0.084,0.042,0.227,0.076,0.434c0.146,0.664,0.266,1.234,0.355,1.695l0.02,0.11l0.52-0.086
			c-0.03,0.134-0.06,0.272-0.093,0.413c-0.372,0.077-0.694,0.14-0.963,0.187l-0.116,0.02l0.092,0.504l0.11-0.017
			c0.662-0.102,1.347-0.23,2.037-0.382l0.09-0.02v-0.093c0-0.03,0.01-0.08,0.026-0.178v-0.293l-0.53,0.107
			C399.601-120.353,399.535-120.335,399.48-120.318L399.48-120.318z M400.148-122.201h1.585l-0.136,0.48h-1.296v2.893h0.56v-2.358
			h0.48v2.003h0.535v-2.003h0.504v1.85h0.19l0.02,0.053c0.046,0.122,0.07,0.22,0.07,0.29v0.115h0.665
			c0.21,0,0.372-0.058,0.484-0.175c0.124-0.13,0.182-0.323,0.172-0.575v-2.093h-1.793l0.12-0.48h1.927v-0.535h-4.086v0.535H400.148z
			 M402.915-121.187h0.504v1.54c0.004,0.06,0,0.144-0.04,0.187c-0.03,0.032-0.08,0.047-0.154,0.047l-0.046-0.002
			c-0.085,0-0.173-0.003-0.265-0.008L402.915-121.187L402.915-121.187z M409.65-124.664h5.1v0.586h-5.1V-124.664z M412.126-122.125
			h3.206v-0.586h-6.29v0.586h2.317c-0.35,0.56-0.787,1.125-1.304,1.687c-0.142,0.175-0.32,0.33-0.53,0.457l-0.092,0.057l0.298,0.556
			l0.088-0.023c0.04-0.01,0.145-0.027,0.438-0.053c0.048-0.016,0.076-0.02,0.095-0.02c1.15-0.05,2.392-0.083,3.696-0.1
			c0.134,0.15,0.265,0.313,0.39,0.484l0.066,0.092l0.525-0.364l-0.077-0.095c-0.81-1-1.374-1.688-1.725-2.106l-0.067-0.08
			l-0.492,0.33l0.073,0.097c0.073,0.1,0.11,0.147,0.135,0.17c0.296,0.374,0.54,0.68,0.737,0.923c-0.923,0.043-1.982,0.08-3.156,0.11
			c0.71-0.81,1.26-1.506,1.635-2.07l0.034-0.05V-122.125z"/>
	</g>
	<g>
		<path fill="#555555" d="M373.299-132.249h3.946v-2.023h-3.946v-1.6h4.046v-10.415h-12.213v10.415h4.07v1.6h-3.97v2.022h3.97v2.106
			h-4.57v2.24h13.213v-2.24h-4.546V-132.249L373.299-132.249z M372.892-144.711h0.85v2.796h-0.85V-144.711L372.892-144.711z
			 M369.577-137.493h-0.85v-2.623h0.85V-137.493z M369.577-141.913h-0.85v-2.798h0.85v2.796V-141.913z M372.893-140.116h0.85v2.623
			h-0.85V-140.116z M409.902-130.137v-10.39h-9.39v10.39h4.895l0.75-1.748h-1.925v-6.895h1.924v8.643"/>
		<path fill="#555555" d="M396.752-145.111l-0.624-0.75h-4.62l2.896,3.747l-3.57,1.123v3.347l4.37-1.323v2.672l-4.37,1.3v3.42
			l4.37-1.323v2.755h-2.774l0.925,2.24h5.945v-13.938l2.048-4.445h-4.046 M387.669-139.59l1.715-4.87v-1.825h-11.315v2.024h7.626
			l-1.62,4.67h-0.926l-1.014-3.198h-3.603l1.01,3.197h-1.473v2.02h2.848v7.92h-1.65l0.725,1.748h5.02v-9.668h0.727v4.073h3.645
			v-6.094"/>
		<path fill="#555555" d="M415.21-131.975v-12.986h-8.784l0.62-1.325h-4.67l-1.603,3.422h-0.76l0.5,1.85h4.058l0.802-1.71h5.742
			v13.073h-1.649l0.724,1.748h5.02"/>
	</g>
	<g>
		<path fill="#555555" d="M420.012-140.527v-5.078h-1.897v-0.68h4.563v0.68h-1.906v5.077h-0.76V-140.527z M423.436-140.527v-5.758
			h1.147l1.364,4.076c0.126,0.38,0.217,0.665,0.275,0.853c0.064-0.21,0.167-0.517,0.305-0.923l1.378-4.006h1.025v5.757h-0.734
			v-4.816l-1.673,4.82h-0.686l-1.665-4.906v4.9h-0.736V-140.527z"/>
	</g>
	<path fill="#E6501E" d="M341.782-154.781c-9.57,0-17.33,7.76-17.33,17.33c0,8.932,6.76,16.286,15.442,17.226
		c1.28-0.936,2.343-2.148,3.103-3.55c0,0,0.56-1.026,0.56-2.786c0-1.982-1.4-3.64-3.263-4.036c-1.09-0.237-2.236-0.308-3.406-0.185
		l-5.366,0.565c-0.142,0.015-0.286,0.022-0.43,0.022c-1.064,0-2.033-0.4-2.764-1.06c-0.976-0.88-1.688-2.047-2.003-3.368
		l6.868-3.133c0.396-0.244,0.686-0.652,0.764-1.146l0.202-1.275c0.09-0.57,0.378-1.112,0.854-1.512l3.068-2.574
		c-1.412-1.338-2.223-3.285-2.04-5.373l0.242-2.76c0.402,1.766,1.24,3.368,2.395,4.684c0.123-1.576,0.802-3,1.84-4.07
		c0.222,1.332,1.08,2.45,2.253,3.025c1.078,0.49,1.907,1.432,2.25,2.582c3.774,0.315,7.206,1.84,9.904,4.188l-2.842,0.525
		c2.913,0.51,5.42,2.197,7.018,4.552c0.007-0.18,0.01-0.36,0.01-0.542C359.111-147.021,351.353-154.782,341.782-154.781
		L341.782-154.781z"/>
</g>
</svg>
