<?xml version="1.0" encoding="utf-8"?>
<!-- Generator: Adobe Illustrator 17.0.0, SVG Export Plug-In . SVG Version: 6.00 Build 0)  -->
<!DOCTYPE svg PUBLIC "-//W3C//DTD SVG 1.1//EN" "http://www.w3.org/Graphics/SVG/1.1/DTD/svg11.dtd">
<svg version="1.1" id="图层_1" xmlns="http://www.w3.org/2000/svg" xmlns:xlink="http://www.w3.org/1999/xlink" x="0px" y="0px"
	 width="52.992px" height="49.786px" viewBox="0 0 52.992 49.786" enable-background="new 0 0 52.992 49.786" xml:space="preserve">
<metadata><?xpacket begin="﻿" id="W5M0MpCehiHzreSzNTczkc9d"?>
<x:xmpmeta xmlns:x="adobe:ns:meta/" x:xmptk="Adobe XMP Core 5.5-c014 79.151739, 2013/04/03-12:12:15        ">
   <rdf:RDF xmlns:rdf="http://www.w3.org/1999/02/22-rdf-syntax-ns#">
      <rdf:Description rdf:about=""
            xmlns:xmpMM="http://ns.adobe.com/xap/1.0/mm/"
            xmlns:stRef="http://ns.adobe.com/xap/1.0/sType/ResourceRef#"
            xmlns:stEvt="http://ns.adobe.com/xap/1.0/sType/ResourceEvent#"
            xmlns:xmp="http://ns.adobe.com/xap/1.0/"
            xmlns:xmpGImg="http://ns.adobe.com/xap/1.0/g/img/"
            xmlns:pdf="http://ns.adobe.com/pdf/1.3/"
            xmlns:dc="http://purl.org/dc/elements/1.1/"
            xmlns:xmpTPg="http://ns.adobe.com/xap/1.0/t/pg/"
            xmlns:stDim="http://ns.adobe.com/xap/1.0/sType/Dimensions#"
            xmlns:xmpG="http://ns.adobe.com/xap/1.0/g/">
         <xmpMM:RenditionClass>proof:pdf</xmpMM:RenditionClass>
         <xmpMM:DocumentID>xmp.did:82689337-5452-6344-a847-32ba111a67fc</xmpMM:DocumentID>
         <xmpMM:InstanceID>xmp.iid:82689337-5452-6344-a847-32ba111a67fc</xmpMM:InstanceID>
         <xmpMM:OriginalDocumentID>uuid:5d2a6fc7-6d94-487a-8849-8976c10b9d73</xmpMM:OriginalDocumentID>
         <xmpMM:DerivedFrom rdf:parseType="Resource">
            <stRef:instanceID>uuid:315bd9ba-91ae-40d4-ab5c-6e3c3ba7f78e</stRef:instanceID>
            <stRef:documentID>uuid:5d2a6fc7-6d94-487a-8849-8976c10b9d73</stRef:documentID>
            <stRef:originalDocumentID>uuid:5d2a6fc7-6d94-487a-8849-8976c10b9d73</stRef:originalDocumentID>
            <stRef:renditionClass>proof:pdf</stRef:renditionClass>
         </xmpMM:DerivedFrom>
         <xmpMM:History>
            <rdf:Seq>
               <rdf:li rdf:parseType="Resource">
                  <stEvt:action>saved</stEvt:action>
                  <stEvt:instanceID>xmp.iid:82689337-5452-6344-a847-32ba111a67fc</stEvt:instanceID>
                  <stEvt:when>2016-03-24T21:16:18+08:00</stEvt:when>
                  <stEvt:softwareAgent>Adobe Illustrator CC (Windows)</stEvt:softwareAgent>
                  <stEvt:changed>/</stEvt:changed>
               </rdf:li>
            </rdf:Seq>
         </xmpMM:History>
         <xmp:CreateDate>2016-03-24T21:16:18+08:00</xmp:CreateDate>
         <xmp:CreatorTool>Adobe Illustrator CC (Windows)</xmp:CreatorTool>
         <xmp:ModifyDate>2016-03-24T21:16:18+08:00</xmp:ModifyDate>
         <xmp:MetadataDate>2016-03-24T21:16:18+08:00</xmp:MetadataDate>
         <xmp:Thumbnails>
            <rdf:Alt>
               <rdf:li rdf:parseType="Resource">
                  <xmpGImg:width>256</xmpGImg:width>
                  <xmpGImg:height>244</xmpGImg:height>
                  <xmpGImg:format>JPEG</xmpGImg:format>
                  <xmpGImg:image>/9j/4AAQSkZJRgABAgEASABIAAD/7QAsUGhvdG9zaG9wIDMuMAA4QklNA+0AAAAAABAASAAAAAEA&#xA;AQBIAAAAAQAB/+4ADkFkb2JlAGTAAAAAAf/bAIQABgQEBAUEBgUFBgkGBQYJCwgGBggLDAoKCwoK&#xA;DBAMDAwMDAwQDA4PEA8ODBMTFBQTExwbGxscHx8fHx8fHx8fHwEHBwcNDA0YEBAYGhURFRofHx8f&#xA;Hx8fHx8fHx8fHx8fHx8fHx8fHx8fHx8fHx8fHx8fHx8fHx8fHx8fHx8fHx8f/8AAEQgA9AEAAwER&#xA;AAIRAQMRAf/EAaIAAAAHAQEBAQEAAAAAAAAAAAQFAwIGAQAHCAkKCwEAAgIDAQEBAQEAAAAAAAAA&#xA;AQACAwQFBgcICQoLEAACAQMDAgQCBgcDBAIGAnMBAgMRBAAFIRIxQVEGE2EicYEUMpGhBxWxQiPB&#xA;UtHhMxZi8CRygvElQzRTkqKyY3PCNUQnk6OzNhdUZHTD0uIIJoMJChgZhJRFRqS0VtNVKBry4/PE&#xA;1OT0ZXWFlaW1xdXl9WZ2hpamtsbW5vY3R1dnd4eXp7fH1+f3OEhYaHiImKi4yNjo+Ck5SVlpeYmZ&#xA;qbnJ2en5KjpKWmp6ipqqusra6voRAAICAQIDBQUEBQYECAMDbQEAAhEDBCESMUEFURNhIgZxgZEy&#xA;obHwFMHR4SNCFVJicvEzJDRDghaSUyWiY7LCB3PSNeJEgxdUkwgJChgZJjZFGidkdFU38qOzwygp&#xA;0+PzhJSktMTU5PRldYWVpbXF1eX1RlZmdoaWprbG1ub2R1dnd4eXp7fH1+f3OEhYaHiImKi4yNjo&#xA;+DlJWWl5iZmpucnZ6fkqOkpaanqKmqq6ytrq+v/aAAwDAQACEQMRAD8A9U4q7FXYq7FXYq7FXYq7&#xA;FXYq7FXYqg7vV9PtaiSUFx+wvxN+HT6cVSm482HcW8HyaQ/8aj+uKpfN5h1WT/dvpjwQAfjucVQj&#xA;317J9u4kb5u39cVUmdm+0SfmcVaDEGoND7Yqqpd3SfYmkX/VYj9RxVExa7qsfScsPBwG/WK4qj7f&#xA;zZONp4VceKEqfxriqa2uv6bcUHqek5/Zk+H8en44qmIIIqNwehxV2KuxV2KuxV2KuxV2KuxV2Kux&#xA;V2KuxV2KuxV2KuxV2KuxV2KpdqGu2dnVK+rMP91r2P8AlHtirHL3XL+7qpf04j/utNh9J6nFUvxV&#xA;2KuxV2KuxV2KuxV2KuxV2Koqz1O9tD+5kIXvGd1P0YqyLT/MtrPRLgehIf2v2D9Pb6cVTgEEVG4P&#xA;Q4q7FXYq7FXYq7FXYq7FXYq7FXYq7FXYq7FXYq7FVk00UMbSSsERdyxxVjGqeY5p6xWtYoehfo7f&#xA;0GKpLirsVdiqKtdLv7qhhhYqf2z8K/ecVTSDynO2886p7KCx/HjiqNj8raev23kc/MAfgMVV18u6&#xA;QOsJb5u/8CMVbPl7SCP7inuHf+uKqMnlfTW+yZE+TA/rBxVBz+Um6wXAPgrrT8RX9WKpbc6JqVvU&#xA;tCXUftJ8Q/DfFUBirsVdiqY6Zrd1ZEJX1IO8ZPT/AFT2xVlllfW15D6sDVH7Snqp8CMVV8VdirsV&#xA;dirsVdirsVdirsVdirsVdirsVUbu7gtIGmmaiDoO5PgMVYdqeq3F/LV/hiX7EQ6D5+JxVBYq7FUw&#xA;0/Rby9oyj04f9+t0+gd8VZHZaDp9rRuHqyfzyb/cOmKpjirsVdirsVdirsVdirsVQl5pVjdg+rGO&#xA;f+/F2b7+/wBOKsd1Dy5dW9ZIP38Q60Hxj6O/0YqlGKuxVXtLye0mE0LcWHUdiPAjFWYaZqkF/FVf&#xA;hlUfvI+49x7YqjcVdirsVdirsVdirsVdirsVdirsVU7i4it4WmlbjGgqTirC9T1Ka+nLv8Ma7Rx9&#xA;gP64qg8VXKrOwVQWZjQKNyTirJNJ8uJGBNegPJ1WHqo/1vHFU+AAFBsB0GKuxV2KuxV2KuxV2Kux&#xA;V2KuxV2KuxVK9U0K3vAZI6RXH8w6N/rD+OKsUubaa2maKZSjr2P6xiqliqra3U1tMs0LcXX7iPA4&#xA;qzXTdQivrcSps42kTupxVFYq7FXYq7FXYq7FXYq7FXYq7FWI69qpu5/RiP8Ao8R2p+03839MVSnF&#xA;VyI7uqICzsaKo6knFWXaNosdkgllAa6YbnqF9h/XFU0xV2KuxV2KuxV2KuxV2KuxV2KuxV2KuxV2&#xA;KoTUtNgvoOD/AAyD+7kHVT/TFWGXdpPaztDMvF1+4jxGKqOKovTdQksbpZV3Q7SJ4rirNoZY5oll&#xA;jPJHFVPscVX4q7FXYq7FXYq7FXYq7FUo8x6j9Xtvq8ZpNOCD7J3+/pirEsVdirKvL2kC3jF1Mv79&#xA;x8AP7Kn+JxVOsVdirsVdirsVdirsVdirsVdirsVdirsVdirsVdiqB1fTEvrfjsJ03if38D7HFWFu&#xA;jxuyOCrqSGU9QRiq3FU/8sajxkNlIfherQ17N3H04qyXFXYq7FXYq7FXYq7FWmZVUsxoqipPgBir&#xA;BdRvGvLySc9GNEHgo6DFUNiqbeX9NF1derIKwQ0JB6M3YYqy7FXYq7FXYq7FXYq7FXYq7FXYq7FX&#xA;Yq7FXYq7FXYq7FXYqx7zPptQL2IbiizAfg38MVY5iq6N3jdXQ0dSCpHYjFWd2F2t3aRzr+2PiHgw&#xA;2I+/FVfFXYq7FXYq7FXYqlPmW79Gw9JTR5zx/wBiN2/pirEcVbVSzBVFSTQAeJxVnWm2a2dnHAPt&#xA;AVkPix64qicVdirsVdirsVdirsVdirsVdirsVdirsVdirsVdirsVdiq2WNJY2jcckcFWHiDirBL2&#xA;1a1upIG6oaA+I6g/diqhirIfKl2Q0tox2I9RPmNm/hirI8VdirsVdirsVdirEvM1z6uo+kPswqF+&#xA;k7nFUoxVNPLtp6+oqzCqQj1D8xsv474qzDFXYq7FXYq7FXYq7FXYq7FXYq7FXYq7FXYq7FXYq7FX&#xA;Yq7FXYqx3zXabxXSjr+7f9a/xxVjuKorTLn6tfwTVoFYBv8AVOx/A4qzrFXYq7FXYq7FXYqwG7m9&#xA;e6lm/wB+OzD5E7Yqo4qynyrb8LOSYjeV6D/VX+0nFU7xV2KuxV2KuxV2KuxV2KuxV2KuxV2KuxV2&#xA;KuxV2KuxV2KuxV2KoLWbf19MnSlSq81+a7/wxVhGKuxVnmnzevYwSk1LIvI+9KH8cVRGKuxV2Kux&#xA;VB3uoWkdtNSeP1QjcU5ryrQ0FK4qwfFXYqzPRJbVdPt4UlQyBasgYEgt8RBFffFUxxV2KuxV2Kux&#xA;V2KuxV2KuxV2KuxV2KuxV2KuxV2KuxV2KuxV2KqM13ZpVJpo0J2Ksyg/icVYG6hXZQagEgEdDTFV&#xA;uKss8vXtv+jo4XlRZFLAIWAahNeh+eKpxirsVQ9/fwWVuZpT7Ig6sfDFWIX+r3l6x9R+MXaJdl+n&#xA;xxVBYq7FXYq7FU103X7q1YJKTNB3UmrD/VJ/VirLIZo5olliblG4qpGKr8VdirsVdirsVdirsVdi&#xA;rsVdirsVdirsVdirsVdiqyaaKCJpZW4xoKsTirE9S1+6umKREwwdAoNGI/yiP1YqlWKuxV2KuxVG&#xA;2Gr3lkw4OWi7xNuv0eGKsvsL6G9txNF8nU9VPgcVYrr961zqDqD+6hJRB2qPtH78VS3FXYq7FXYq&#xA;7FXYqn/la9YSvZsfhYc4/YjqPpxVkuKuxV2KuxV2KuxV2KuxV2KuxV2KuxV2KuxV2KuxVjXmm9Yy&#xA;paKfhUc5PcnoPoGKpBirsVdirsVdirsVTLQL1rbUEUn93MQjj3P2T9+KpczFmLHqTU/TirWKsq8v&#xA;adaHT0uJIlkklLVLgGgDFaCvyxVNPqVn/viP/gF/pirvqVn/AL4j/wCAX+mKsf8AM1hbQejNCgjL&#xA;kq6qKA03BoMVSHFUdojFdVtyP5qfeCMVZtirsVdirsVdirsVdirsVdirsVdirsVdirsVdirsVYTr&#xA;bFtVuCf5qfcAMVQOKp95ZsLaf1ZpkEhQhUVhUCu5NDirIPqVn/viP/gF/pirvqVn/viP/gF/piqV&#xA;+YdOtBp73EcSxyRFaFABUFgtDT54qxXFW1YqwYdQaj6MVaxV2Ksz8vf8ce3/ANn/AMTbFUxxV2Kp&#xA;F5s/3nt/9c/qxVjGKo3Rv+Opbf6+Ks3xV2KuxV2KuxV2KuxV2KuxV2KuxV2KuxV2KuxV2KsI1n/j&#xA;qXP+viqCxVk/lP8A3nuP9cfqxVPcVdiqXeYf+OPcf7D/AImuKsMxV2KuxV2Ksz8vf8ce3/2f/E2x&#xA;VMcVdiqRebP957f/AFz+rFWMYqjdG/46lt/r4qzfFXYq7FXYq7FXYq7FXYq7FXYq7FXYq7FXYq7F&#xA;XYqwjWf+Opc/6+KoLFWT+U/957j/AFx+rFU9xV2Kpd5h/wCOPcf7D/ia4qwzFXYq7FXYqzPy9/xx&#xA;7f8A2f8AxNsVTHFXYqkXmz/ee3/1z+rFWMYqjdG/46lt/r4qzfFXYq7FXYq7FXYq7FXYq7FXYq7F&#xA;XYq7FXYq7FXYqwjWf+Opc/6+KoLFWT+U/wDee4/1x+rFU9xV2Kpd5h/449x/sP8Aia4qwzFXYq7F&#xA;XYqzPy9/xx7f/Z/8TbFUxxV2KpF5s/3nt/8AXP6sVYxiqN0b/jqW3+virN8VdirsVdirsVdirsVd&#xA;irsVdirsVdirsVdirsVdirCNZ/46lz/r4qgsVZP5T/3nuP8AXH6sVT3FXYql3mH/AI49x/sP+Jri&#xA;rDMVdirsVdirM/L3/HHt/wDZ/wDE2xVMcVdiqRebP957f/XP6sVYxiqN0b/jqW3+virN8VdirsVd&#xA;irsVdirsVdirsVdirsVdirsVdirsVdirCNZ/46lz/r4qgsVZP5T/AN57j/XH6sVT3FXYql3mH/jj&#xA;3H+w/wCJrirDMVdirsVdirM/L3/HHt/9n/xNsVTHFXYqkXmz/ee3/wBc/qxVjGKo3Rv+Opbf6+Ks&#xA;3xV2KuxV2KuxV2KuxV2KuxV2KuxV2KuxV2KuxV2KsI1n/jqXP+viqCxVk/lP/ee4/wBcfqxVPcVd&#xA;iqXeYf8Ajj3H+w/4muKsMxV2Kt4q1irM/LxH6Ig9udf+DOKpjirsVSLzYD9WgPbmf1YqxjFUdooJ&#xA;1W2A/mr9wJxVm2KuxV2KuxV2KuxV2KuxV2KuxV2KuxV2KuxV2KuxVhGs/wDHUuf9fFUFirJ/Kf8A&#xA;vPcf64/Viqe4q7FUu8w/8ce4/wBh/wATXFWGYq7FVe+hMN5PEduLsB8q7YqoYqyXyreKYpLRj8Sn&#xA;mg8Qdj9xxVP8VdiqHv7KK9tmgk2rurdww6HFWMS+W9URyqIsi9nVlA/4Yg4qm+iaGbNjPOQ05FFU&#xA;bhQeu/jiqcYq7FXYq7FXYq7FXYq7FXYq7FXYq7FXYq7FXYq7FWE62pXVbgH+av3gHFUDiqf+WL62&#xA;h9aGZxGXIZCxoDTYipxVP/rtn/v+P/g1/rirvrtn/v8Aj/4Nf64qlfmHUbQ6e8CSrJJKVoEINAGD&#xA;VNPlirFcVbVSzBR1JoPpxVPPNNkUuFu1HwSji/8ArAbfeMVSLFVS3nlt5kmiPGRDUHFWZ6Zq1vfR&#xA;/CeMwHxxHqPceIxVG4q7FXYq7FXYq7FXYq7FXYq7FXYq07pGpd2CoOrE0A+/FUpufM+nxErEGmI7&#xA;qKL95/piqF/xctf95TTx57/8RxVGWvmTTpiFctCx/nHw/eP44qmqsrAMpBB3BG4xV2KuxV2KuxVj&#xA;XmmyZZUu1HwOOEh8GHT7xiqQYq7FXYq7FXYq7FUy0Gya51BCR+7hIdz8vsj6TirLLy1iurd4JPsu&#xA;OvcHsRirCLyzmtLhoJRRl6HsR2IxVQxVdHJJG4eNijruGBoRiqf2HmlhRL1eX/FqdfpX+mKp7bXt&#xA;rcryglWTxAO4+Y6jFVbFXYq7FXYq7FXYq7FXYqp3NxFbwPNKaIgqTirDNS1W4vpaueMQPwRDoPn4&#xA;nFUFirsVdiqY6TrE9jIFJL2xPxx+HuuKsxiljljWSNuSOKqw7g4quxV2KuxVZPBFPE0Uq8o3FGGK&#xA;sR1LQ7u1kYxo0tv1VwKkDwYDFUsxV2KuxV2Koyw0q8vWHppSPvK2yj+uKswsLCCytxDEPd3PVj4n&#xA;FURiqE1HTbe+h4SbOP7uQdVP9MVYhf6dc2UvCZfhP2JB9lvkcVQuKuxVtWZWDKSrDoRscVTC31/V&#xA;IdvV9RR2kHL8ev44qj4vNsg/vrdW8SjEfga4qik812J+3FIp9gpH6xiq/wDxRpvhJ/wI/rirv8Ua&#xA;b4Sf8CP64q7/ABRpvhJ/wI/rirv8Uab4Sf8AAj+uKu/xRpvhJ/wI/riqU67rMd8I44OQhX4m5ClW&#xA;7fdiqUYq2qs7BVBZiaBRuScVRp0PVRH6ht249aAgn/gQa4qgiCCQRQjqMVaxVkvlW8ZkktGNeHxx&#xA;/ImjD78VT/FXYq7FXYq7FVCWxspTylgjdv5ior9+KrP0Tpv/ACzR/wDAjFXfonTf+WaP/gRiraab&#xA;p6Gq20YPY8RiqJxV2KuxV2KrJYYpozHKgdG6qRUYqkN/5W3L2T0/4qf+Df1xVIri0ubZuM8bRntU&#xA;bH5HocVUcVdirsVdirsVdirsVdirsVdirsVZF5Utoz61wRWRSEX2FKn78VZFirF/NVtHHdRTKKGY&#xA;HmB3K03/ABxVI8VTTy2xGqxgftKwP/A1/hirMMVdirsVdirsVdirsVdirsVdirsVdirsVdirsVad&#xA;EdSrqGU9VYVB+/FUtufLmmTVKoYWPeM0H3GoxVLZvKcw/uJ1b2cFfxHLFUFJ5e1VOkQceKsp/WQc&#xA;VQ7aXqS9bWX6EJ/Viqz6lef74k/4Bv6Yq76lef74k/4Bv6Yq76lef74k/wCAb+mKu+pXn++JP+Ab&#xA;+mKu+pXn++JP+Ab+mKqckUsZ4yIyE7gMCDT6cVWYqmWiar9QmYSAtBJTnTqCOhGKsjbXtKEfP1wf&#xA;BQDX7qYqxjVtSa/ufUpxjUcY1PWnifc4qgcVTnyvCX1BpP2YkJr7tsP44qyvFXYq7FXYq7FXYq7F&#xA;XYq7FXYq7FXYq7FXYq7FXYq7FXYq7FXYq7FXYq7FXYq7FUp8w6a11bCWIVmhqaDqy9xirEcVdirs&#xA;VdirYBJAAqTsAMVZloem/UrQcx+/l+KT28F+jFUxxV2KuxV2KuxV2KuxV2KuxV2KuxV2KuxV2Kux&#xA;V2KuxV2KuxV2KuxV2KuxV2KuxV2KpJqvl1LhjNakRyndozsrHxHgcVY7c2V3bMRPEye5G30Hpiqh&#xA;iqJtdOvbpgIYmYH9qlF+87YqyXSdAitCJpyJbgfZp9lfl4n3xVNsVdirsVdirsVdirsVdirsVdir&#xA;sVdirsVdirsVdirsVdirsVdirsVdirsVdirsVdirsVdirjSm/TviqgPqXPb0uf8Asa4qr4q7FXYq&#xA;7FXYq7FXYq7FXYq7FXYq7FXYq7FX/9k=</xmpGImg:image>
               </rdf:li>
            </rdf:Alt>
         </xmp:Thumbnails>
         <pdf:Producer>Adobe PDF library 10.01</pdf:Producer>
         <dc:format>image/svg+xml</dc:format>
         <xmpTPg:MaxPageSize rdf:parseType="Resource">
            <stDim:w>52.992004</stDim:w>
            <stDim:h>49.785803</stDim:h>
            <stDim:unit>Pixels</stDim:unit>
         </xmpTPg:MaxPageSize>
         <xmpTPg:NPages>1</xmpTPg:NPages>
         <xmpTPg:HasVisibleTransparency>False</xmpTPg:HasVisibleTransparency>
         <xmpTPg:HasVisibleOverprint>False</xmpTPg:HasVisibleOverprint>
         <xmpTPg:PlateNames>
            <rdf:Seq>
               <rdf:li>Cyan</rdf:li>
               <rdf:li>Magenta</rdf:li>
               <rdf:li>Yellow</rdf:li>
            </rdf:Seq>
         </xmpTPg:PlateNames>
         <xmpTPg:SwatchGroups>
            <rdf:Seq>
               <rdf:li rdf:parseType="Resource">
                  <xmpG:groupName>默认色板组</xmpG:groupName>
                  <xmpG:groupType>0</xmpG:groupType>
               </rdf:li>
            </rdf:Seq>
         </xmpTPg:SwatchGroups>
      </rdf:Description>
   </rdf:RDF>
</x:xmpmeta>
                                                                                                    
                                                                                                    
                                                                                                    
                                                                                                    
                                                                                                    
                                                                                                    
                                                                                                    
                                                                                                    
                                                                                                    
                                                                                                    
                                                                                                    
                                                                                                    
                                                                                                    
                                                                                                    
                                                                                                    
                                                                                                    
                                                                                                    
                                                                                                    
                                                                                                    
                                                                                                    
                           
<?xpacket end="w"?>
	</metadata>
<g>
	<path fill="#CCCCCC" stroke="#CCCCCC" stroke-miterlimit="10" d="M44.664,22.861c-0.372,0-0.716,0.155-0.965,0.404
		c-0.246,0.245-0.401,0.588-0.401,0.959v12.85c0,0.368,0.155,0.711,0.405,0.959h-0.004l0.004,0.004c0.245,0.245,0.589,0.4,0.961,0.4
		h3.728c0.369,0,0.708-0.159,0.957-0.408l0.004,0.003l0.003-0.003c0.246-0.245,0.401-0.588,0.401-0.956v-12.85
		c0-0.346-0.134-0.667-0.35-0.909l-0.054-0.051c-0.249-0.249-0.589-0.404-0.961-0.404C47.149,22.861,46.008,22.861,44.664,22.861
		L44.664,22.861L44.664,22.861z M30.072,42.473c-0.051-0.025-0.101-0.054-0.148-0.087c-0.506-0.263-1.076-0.31-1.597-0.17
		c-0.545,0.144-1.037,0.502-1.344,1.028H26.98c-0.188,0.328-0.282,0.689-0.289,1.046v0.061v0.043
		c0.004,0.181,0.029,0.357,0.076,0.527c0.137,0.519,0.462,0.988,0.943,1.295c0.058,0.025,0.116,0.061,0.17,0.097
		c0.509,0.263,1.077,0.31,1.597,0.17c0.524-0.141,0.997-0.473,1.304-0.967c0.029-0.05,0.058-0.101,0.09-0.148
		c0.26-0.505,0.307-1.075,0.17-1.59C30.9,43.252,30.568,42.78,30.072,42.473L30.072,42.473L30.072,42.473z M31.377,40.078
		c1.181,0.682,1.976,1.778,2.301,2.997c0.325,1.212,0.188,2.557-0.495,3.736l-0.004,0.007h0.004
		c-0.683,1.179-1.781,1.973-3.002,2.297c-1.217,0.328-2.561,0.187-3.746-0.494l-0.029-0.018c-1.142-0.667-1.915-1.72-2.254-2.889
		h-8.764c-0.051,0-0.105-0.003-0.156-0.007c-3.045-0.09-7.33-0.981-10.44-2.975C2.288,41.128,0.5,38.827,0.5,35.675V24.224
		c0-1.125,0.462-2.15,1.203-2.892c0.744-0.74,1.77-1.201,2.897-1.201h0.582c0.452-5.186,2.749-9.85,6.232-13.326
		C15.315,2.909,20.705,0.5,26.659,0.5c5.953,0,11.347,2.409,15.249,6.304c3.479,3.473,5.773,8.136,6.228,13.326h0.256
		c1.127,0,2.153,0.465,2.894,1.204c0.029,0.029,0.058,0.061,0.087,0.094c0.694,0.739,1.12,1.728,1.12,2.795v12.85
		c0,1.115-0.466,2.139-1.21,2.882l0.003,0.003c-0.744,0.743-1.774,1.208-2.894,1.208h-3.728c-1.117,0-2.146-0.465-2.894-1.208v0.003
		c-0.741-0.743-1.207-1.763-1.207-2.889v-12.85c0-1.125,0.463-2.15,1.203-2.892c0.744-0.74,1.77-1.201,2.897-1.201h0.737
		c-0.448-4.429-2.439-8.411-5.426-11.397C36.568,5.333,31.861,3.23,26.659,3.23c-5.198,0-9.906,2.103-13.312,5.504
		c-2.987,2.983-4.974,6.964-5.419,11.397h0.401c1.131,0,2.153,0.465,2.894,1.204c0.032,0.029,0.061,0.061,0.087,0.094
		c0.694,0.739,1.12,1.728,1.12,2.795v11.599c0,0.754-0.611,1.367-1.366,1.367c-0.755,0-1.365-0.613-1.365-1.367V24.224
		c0-0.346-0.137-0.667-0.354-0.909L9.29,23.265c-0.249-0.249-0.589-0.404-0.961-0.404H4.6c-0.372,0-0.715,0.155-0.964,0.404
		c-0.246,0.245-0.401,0.588-0.401,0.959v11.451c0,2.066,1.264,3.632,3.031,4.764c2.663,1.709,6.383,2.474,9.039,2.55l0.083-0.004
		h8.768c0.108-0.375,0.264-0.743,0.47-1.1v-0.003l0,0c0.683-1.179,1.777-1.973,2.998-2.301c1.218-0.324,2.565-0.184,3.746,0.498
		l0.004,0.003L31.377,40.078L31.377,40.078z M31.377,40.078"/>
</g>
</svg>
