<?xml version="1.0" encoding="utf-8"?>
<!-- Generator: Adobe Illustrator 17.0.0, SVG Export Plug-In . SVG Version: 6.00 Build 0)  -->
<!DOCTYPE svg PUBLIC "-//W3C//DTD SVG 1.1//EN" "http://www.w3.org/Graphics/SVG/1.1/DTD/svg11.dtd">
<svg version="1.1" id="图层_1" xmlns="http://www.w3.org/2000/svg" xmlns:xlink="http://www.w3.org/1999/xlink" x="0px" y="0px"
	 width="104.478px" height="36px" viewBox="472.116 -81.5 104.478 36" enable-background="new 472.116 -81.5 104.478 36"
	 xml:space="preserve">
<metadata><?xpacket begin="﻿" id="W5M0MpCehiHzreSzNTczkc9d"?>
<x:xmpmeta xmlns:x="adobe:ns:meta/" x:xmptk="Adobe XMP Core 5.5-c014 79.151739, 2013/04/03-12:12:15        ">
   <rdf:RDF xmlns:rdf="http://www.w3.org/1999/02/22-rdf-syntax-ns#">
      <rdf:Description rdf:about=""
            xmlns:xmpMM="http://ns.adobe.com/xap/1.0/mm/"
            xmlns:stRef="http://ns.adobe.com/xap/1.0/sType/ResourceRef#"
            xmlns:stEvt="http://ns.adobe.com/xap/1.0/sType/ResourceEvent#"
            xmlns:xmp="http://ns.adobe.com/xap/1.0/"
            xmlns:xmpGImg="http://ns.adobe.com/xap/1.0/g/img/"
            xmlns:pdf="http://ns.adobe.com/pdf/1.3/"
            xmlns:dc="http://purl.org/dc/elements/1.1/"
            xmlns:xmpTPg="http://ns.adobe.com/xap/1.0/t/pg/"
            xmlns:stDim="http://ns.adobe.com/xap/1.0/sType/Dimensions#"
            xmlns:xmpG="http://ns.adobe.com/xap/1.0/g/">
         <xmpMM:RenditionClass>proof:pdf</xmpMM:RenditionClass>
         <xmpMM:DocumentID>xmp.did:068eb450-5fc7-3d41-acd7-26ab2a24a4af</xmpMM:DocumentID>
         <xmpMM:InstanceID>xmp.iid:068eb450-5fc7-3d41-acd7-26ab2a24a4af</xmpMM:InstanceID>
         <xmpMM:OriginalDocumentID>uuid:d4223496-a638-4d65-a65a-dba3a821b7bc</xmpMM:OriginalDocumentID>
         <xmpMM:DerivedFrom rdf:parseType="Resource">
            <stRef:instanceID>xmp.iid:b784acbc-c0d5-4841-8ea4-be249a281832</stRef:instanceID>
            <stRef:documentID>xmp.did:b784acbc-c0d5-4841-8ea4-be249a281832</stRef:documentID>
            <stRef:originalDocumentID>uuid:d4223496-a638-4d65-a65a-dba3a821b7bc</stRef:originalDocumentID>
            <stRef:renditionClass>proof:pdf</stRef:renditionClass>
         </xmpMM:DerivedFrom>
         <xmpMM:History>
            <rdf:Seq>
               <rdf:li rdf:parseType="Resource">
                  <stEvt:action>saved</stEvt:action>
                  <stEvt:instanceID>xmp.iid:b784acbc-c0d5-4841-8ea4-be249a281832</stEvt:instanceID>
                  <stEvt:when>2016-04-21T17:39:49+08:00</stEvt:when>
                  <stEvt:softwareAgent>Adobe Illustrator CC (Windows)</stEvt:softwareAgent>
                  <stEvt:changed>/</stEvt:changed>
               </rdf:li>
               <rdf:li rdf:parseType="Resource">
                  <stEvt:action>saved</stEvt:action>
                  <stEvt:instanceID>xmp.iid:068eb450-5fc7-3d41-acd7-26ab2a24a4af</stEvt:instanceID>
                  <stEvt:when>2016-04-25T11:12:15+08:00</stEvt:when>
                  <stEvt:softwareAgent>Adobe Illustrator CC (Windows)</stEvt:softwareAgent>
                  <stEvt:changed>/</stEvt:changed>
               </rdf:li>
            </rdf:Seq>
         </xmpMM:History>
         <xmp:CreateDate>2016-04-25T11:12:15+08:00</xmp:CreateDate>
         <xmp:CreatorTool>Adobe Illustrator CC (Windows)</xmp:CreatorTool>
         <xmp:ModifyDate>2016-04-25T11:12:15+08:00</xmp:ModifyDate>
         <xmp:MetadataDate>2016-04-25T11:12:15+08:00</xmp:MetadataDate>
         <xmp:Thumbnails>
            <rdf:Alt>
               <rdf:li rdf:parseType="Resource">
                  <xmpGImg:width>256</xmpGImg:width>
                  <xmpGImg:height>88</xmpGImg:height>
                  <xmpGImg:format>JPEG</xmpGImg:format>
                  <xmpGImg:image>/9j/4AAQSkZJRgABAgEASABIAAD/7QAsUGhvdG9zaG9wIDMuMAA4QklNA+0AAAAAABAASAAAAAEA&#xA;AQBIAAAAAQAB/+4ADkFkb2JlAGTAAAAAAf/bAIQABgQEBAUEBgUFBgkGBQYJCwgGBggLDAoKCwoK&#xA;DBAMDAwMDAwQDA4PEA8ODBMTFBQTExwbGxscHx8fHx8fHx8fHwEHBwcNDA0YEBAYGhURFRofHx8f&#xA;Hx8fHx8fHx8fHx8fHx8fHx8fHx8fHx8fHx8fHx8fHx8fHx8fHx8fHx8fHx8f/8AAEQgAWAEAAwER&#xA;AAIRAQMRAf/EAaIAAAAHAQEBAQEAAAAAAAAAAAQFAwIGAQAHCAkKCwEAAgIDAQEBAQEAAAAAAAAA&#xA;AQACAwQFBgcICQoLEAACAQMDAgQCBgcDBAIGAnMBAgMRBAAFIRIxQVEGE2EicYEUMpGhBxWxQiPB&#xA;UtHhMxZi8CRygvElQzRTkqKyY3PCNUQnk6OzNhdUZHTD0uIIJoMJChgZhJRFRqS0VtNVKBry4/PE&#xA;1OT0ZXWFlaW1xdXl9WZ2hpamtsbW5vY3R1dnd4eXp7fH1+f3OEhYaHiImKi4yNjo+Ck5SVlpeYmZ&#xA;qbnJ2en5KjpKWmp6ipqqusra6voRAAICAQIDBQUEBQYECAMDbQEAAhEDBCESMUEFURNhIgZxgZEy&#xA;obHwFMHR4SNCFVJicvEzJDRDghaSUyWiY7LCB3PSNeJEgxdUkwgJChgZJjZFGidkdFU38qOzwygp&#xA;0+PzhJSktMTU5PRldYWVpbXF1eX1RlZmdoaWprbG1ub2R1dnd4eXp7fH1+f3OEhYaHiImKi4yNjo&#xA;+DlJWWl5iZmpucnZ6fkqOkpaanqKmqq6ytrq+v/aAAwDAQACEQMRAD8A9U4q7FXYq7FXYq7FXYq7&#xA;FXYq7FXYq7FXYq7FXYq7FXYq7FXYq7FXYq7FXYq7FXYq7FXYq7FXYq7FXYq7FXYq7FXYq7FXYq7F&#xA;XYq7FXYq7FXYq7FXYq7FXYq7FXYq7FXYq7FXYq7FXYq7FXYq7FXYq7FXYq7FXYq7FXYq7FXYq7FX&#xA;Yq7FXYq7FXYq7FXYq7FXYq7FXYq7FXYq7FXYq7FXYq7FXYq7FXYq7FXYq7FXYq7FXYq7FXYq7FXY&#xA;q7FXYq7FXYq7FXYq7FXYq7FXYq7FXYq7FXYq7FXYq7FXYq7FXYq7FXYq7FXYq7FXYq7FXYq7FXYq&#xA;7FXYq7FXYq7FXYq7FXYq7FXYq7FXYq7FXYq7FXYq7FXYq7FXYq7FXYq7FXYq7FXYq7FXYq7FXYq7&#xA;FXYq7FXYq7FXYq7FXYq7FXYq7FXYq7FXYq7FXYq7FXYq7FXYq7FXYq7FXYq7FXYq7FXYq7FXYq7F&#xA;XYq7FXYq7FXYq7FXYq7FXYq7FXYq7FXYq7FXYq7FXYq7FXYq7FXYq7FXYq7FXYq7FXYq7FXYq7FX&#xA;Yq7FXYq7FXYq7FXYq7FXYq7FXYq7FXYq7FXYq7FXYq7FXYq7FXYq7FXYq7FXYq7FXYq7FXYq7FXY&#xA;q7FXYq7FXYq7FXYq7FXYq7FXYq7FXYq7FXYq7FXYq7FXYq7FXYq7FXYq7FXYq7FXYq7FXYq7FXYq&#xA;7FXYq7FXYq7FXYq7FXYq7FXYq7FXYq7FXYq7FXYq7FXYq7FXYq7FXYq7FXYq7FXYq7FXYq7FXYq7&#xA;FXYq7FXYq7FXYq7FXYq7FXYq7FXYq7FXYq7FXYq7FXYq7FXYq7FXYq7FXYq7FXYq7FXYq7FXYq7F&#xA;XYq7FXYq7FXYq7FXYq7FXYq7FX//2Q==</xmpGImg:image>
               </rdf:li>
            </rdf:Alt>
         </xmp:Thumbnails>
         <pdf:Producer>Adobe PDF library 10.01</pdf:Producer>
         <dc:format>image/svg+xml</dc:format>
         <xmpTPg:MaxPageSize rdf:parseType="Resource">
            <stDim:w>104.478004</stDim:w>
            <stDim:h>36.000001</stDim:h>
            <stDim:unit>Pixels</stDim:unit>
         </xmpTPg:MaxPageSize>
         <xmpTPg:NPages>1</xmpTPg:NPages>
         <xmpTPg:HasVisibleTransparency>False</xmpTPg:HasVisibleTransparency>
         <xmpTPg:HasVisibleOverprint>False</xmpTPg:HasVisibleOverprint>
         <xmpTPg:SwatchGroups>
            <rdf:Seq>
               <rdf:li rdf:parseType="Resource">
                  <xmpG:groupName>默认色板组</xmpG:groupName>
                  <xmpG:groupType>0</xmpG:groupType>
               </rdf:li>
            </rdf:Seq>
         </xmpTPg:SwatchGroups>
      </rdf:Description>
   </rdf:RDF>
</x:xmpmeta>
                                                                                                    
                                                                                                    
                                                                                                    
                                                                                                    
                                                                                                    
                                                                                                    
                                                                                                    
                                                                                                    
                                                                                                    
                                                                                                    
                                                                                                    
                                                                                                    
                                                                                                    
                                                                                                    
                                                                                                    
                                                                                                    
                                                                                                    
                                                                                                    
                                                                                                    
                                                                                                    
                           
<?xpacket end="w"?>
	</metadata>
<g>
	<g>
		<path fill="#FFFFFF" d="M512.944-50.39h4.74v0.734h0.585v-1.296h-2.443l-0.027-0.06c-0.084-0.185-0.213-0.408-0.38-0.662
			c-0.022-0.06-0.045-0.1-0.073-0.13l-0.055-0.057l-0.5,0.208l0.068,0.115c0.05,0.084,0.116,0.208,0.198,0.373
			c0.04,0.08,0.077,0.152,0.11,0.213h-2.81v1.295h0.587v-0.736V-50.39z"/>
		<path fill="#FFFFFF" d="M516.189-50.1v-0.117h-0.586v0.116c0,1.004-0.074,1.74-0.22,2.19h-3.152v0.562h2.874
			c-0.403,0.54-1.354,0.958-2.832,1.242l-0.217,0.038l0.155,0.154c0,0,0.01,0.014,0.025,0.06l0.02,0.037
			c0.09,0.108,0.12,0.173,0.13,0.208l0.028,0.11l0.11-0.025c1.383-0.313,2.348-0.747,2.868-1.29c0.212,0.097,0.49,0.23,0.84,0.396
			c0.705,0.303,1.283,0.567,1.718,0.784l0.095,0.047l0.326-0.53l-0.12-0.055c-0.443-0.197-1.05-0.455-1.85-0.786l-0.66-0.298
			c0.013-0.02,0.025-0.043,0.037-0.07l0.008-0.02h2.636v-0.56h-2.42C516.127-48.397,516.189-49.117,516.189-50.1z"/>
		<path fill="#FFFFFF" d="M513.166-49.233l-0.303,0.475l0.12,0.056c0.432,0.2,0.837,0.42,1.204,0.652l0.097,0.06l0.335-0.503
			l-0.11-0.06c-0.457-0.254-0.878-0.47-1.25-0.64L513.166-49.233z M514.866-48.93l0.35-0.523l-0.146-0.048
			c-0.04-0.015-0.102-0.045-0.185-0.095c-0.424-0.22-0.76-0.397-1.014-0.532l-0.09-0.048l-0.31,0.442l0.112,0.063
			c0.422,0.237,0.82,0.465,1.19,0.684l0.093,0.055L514.866-48.93z M523.381-45.928h0.56v-0.583h1.114v0.506h0.585v-5.227h-2.26
			v5.302L523.381-45.928z M523.941-49.151v-1.545h1.114v1.544h-1.114V-49.151z M525.055-48.617v1.544h-1.114v-1.544H525.055
			L525.055-48.617z M528.608-51.84h-0.56v1.42h-2.283v0.537h2.28v3.262c0.007,0.128-0.02,0.224-0.077,0.284
			c-0.065,0.068-0.178,0.102-0.337,0.102h-1.125l0.05,0.15c0.032,0.094,0.056,0.206,0.072,0.334l0.013,0.1h1.019
			c0.336-0.01,0.587-0.1,0.746-0.27c0.143-0.153,0.212-0.366,0.202-0.63v-3.334h0.887v-0.536h-0.888L528.608-51.84L528.608-51.84z"
			/>
		<path fill="#FFFFFF" d="M526.816-47.502l0.505-0.294l-0.04-0.094c-0.12-0.272-0.32-0.644-0.59-1.102
			c-0.066-0.115-0.116-0.206-0.148-0.272l-0.053-0.108l-0.487,0.265l0.056,0.102c0.302,0.553,0.54,1.02,0.706,1.387L526.816-47.502
			L526.816-47.502z M536.243-45.598h0.586v-0.406h2.736v0.406h0.585v-2.87h-3.908L536.243-45.598L536.243-45.598z M539.565-47.906
			v1.39h-2.737v-1.39H539.565L539.565-47.906z"/>
		<path fill="#FFFFFF" d="M535.766-50.7c1.433-0.068,2.95-0.186,4.51-0.35l0.156-0.016l-0.248-0.58l-0.087,0.012
			c-1.577,0.2-3.194,0.32-4.805,0.354l-0.113,0.002v1.964c0,0.85-0.05,1.506-0.15,1.954c-0.097,0.456-0.296,0.912-0.592,1.355
			l-0.053,0.08l0.068,0.066c0.04,0.04,0.112,0.095,0.22,0.167c0.062,0.042,0.08,0.057,0.083,0.06l0.106,0.11l0.077-0.13
			c0.345-0.586,0.57-1.126,0.673-1.608c0.103-0.48,0.155-1.17,0.155-2.054v-0.062h4.97v-0.56h-4.97V-50.7z M547.816-50.57h-0.825
			l0.193-0.065l-0.034-0.108c-0.085-0.272-0.215-0.61-0.384-1l-0.042-0.097l-0.528,0.176l0.054,0.117
			c0.116,0.25,0.242,0.578,0.376,0.977h-1.02v0.536h2.21V-50.57L547.816-50.57z M551.466-51.46h-0.56v0.99h-0.834v-1.37h-0.56v1.37
			h-0.835v-0.99h-0.561v1.526h3.35 M547.144-47.037c0.232-1.01,0.414-1.853,0.54-2.51l0.024-0.116l-0.533-0.09l-0.022,0.113
			c-0.115,0.615-0.27,1.376-0.467,2.265l-0.014-0.084c-0.117-0.632-0.27-1.35-0.458-2.135l-0.025-0.106l-0.502,0.09l0.024,0.115
			c0.016,0.084,0.042,0.227,0.076,0.434c0.146,0.664,0.266,1.234,0.355,1.695l0.02,0.11l0.52-0.086
			c-0.03,0.134-0.06,0.272-0.093,0.413c-0.372,0.077-0.694,0.14-0.963,0.187l-0.116,0.02l0.092,0.504l0.11-0.017
			c0.662-0.102,1.347-0.23,2.037-0.382l0.09-0.02v-0.093c0-0.03,0.01-0.08,0.026-0.178v-0.293l-0.53,0.107
			c-0.07,0.022-0.136,0.04-0.192,0.056L547.144-47.037z M547.812-48.92h1.585l-0.136,0.48h-1.296v2.893h0.56v-2.358h0.48v2.003
			h0.535v-2.003h0.504v1.85h0.19l0.02,0.053c0.046,0.122,0.07,0.22,0.07,0.29v0.115h0.665c0.21,0,0.372-0.058,0.484-0.175
			c0.124-0.13,0.182-0.323,0.172-0.575v-2.093h-1.793l0.12-0.48h1.927v-0.535h-4.086L547.812-48.92L547.812-48.92z M550.579-47.906
			h0.504v1.54c0.004,0.06,0,0.144-0.04,0.187c-0.03,0.032-0.08,0.047-0.154,0.047l-0.046-0.002c-0.085,0-0.173-0.003-0.265-0.008
			L550.579-47.906L550.579-47.906z M557.314-51.383h5.1v0.586h-5.1V-51.383z M559.79-48.844h3.206v-0.586h-6.29v0.586h2.317
			c-0.35,0.56-0.787,1.125-1.304,1.687c-0.142,0.175-0.32,0.33-0.53,0.457l-0.092,0.057l0.298,0.556l0.088-0.023
			c0.04-0.01,0.145-0.027,0.438-0.053c0.048-0.016,0.076-0.02,0.095-0.02c1.15-0.05,2.392-0.083,3.696-0.1
			c0.134,0.15,0.265,0.313,0.39,0.484l0.066,0.092l0.525-0.364l-0.077-0.095c-0.81-1-1.374-1.688-1.725-2.106l-0.067-0.08
			l-0.492,0.33l0.073,0.097c0.073,0.1,0.11,0.147,0.135,0.17c0.296,0.374,0.54,0.68,0.737,0.923c-0.923,0.043-1.982,0.08-3.156,0.11
			c0.71-0.81,1.26-1.506,1.635-2.07l0.034-0.05V-48.844z"/>
	</g>
	<g>
		<path fill="#FFFFFF" d="M520.963-58.968h3.946v-2.023h-3.946v-1.6h4.046v-10.415h-12.213v10.415h4.07v1.6h-3.97v2.022h3.97v2.106
			h-4.57v2.24h13.213v-2.24h-4.546V-58.968L520.963-58.968z M520.556-71.43h0.85v2.796h-0.85V-71.43L520.556-71.43z M517.241-64.213
			h-0.85v-2.623h0.85V-64.213z M517.241-68.633h-0.85v-2.798h0.85v2.796V-68.633z M520.557-66.835h0.85v2.623h-0.85V-66.835z
			 M557.566-56.857v-10.39h-9.39v10.39h4.895l0.75-1.748h-1.925V-65.5h1.924v8.643"/>
		<path fill="#FFFFFF" d="M544.416-71.83l-0.624-0.75h-4.62l2.896,3.747l-3.57,1.123v3.347l4.37-1.323v2.672l-4.37,1.3v3.42
			l4.37-1.323v2.755h-2.774l0.925,2.24h5.945V-68.56l2.048-4.445h-4.046 M535.333-66.31l1.715-4.87v-1.825h-11.315v2.024h7.626
			l-1.62,4.67h-0.926l-1.014-3.198h-3.603l1.01,3.197h-1.473v2.02h2.848v7.92h-1.65l0.725,1.748h5.02v-9.668h0.727v4.073h3.645
			v-6.094"/>
		<path fill="#FFFFFF" d="M562.874-58.694V-71.68h-8.784l0.62-1.325h-4.67l-1.603,3.422h-0.76l0.5,1.85h4.058l0.802-1.71h5.742
			v13.073h-1.649l0.724,1.748h5.02"/>
	</g>
	<g>
		<path fill="#FFFFFF" d="M567.676-67.247v-5.078h-1.897v-0.68h4.563v0.68h-1.906v5.077L567.676-67.247L567.676-67.247z
			 M571.1-67.247v-5.758h1.147l1.364,4.076c0.126,0.38,0.217,0.665,0.275,0.853c0.064-0.21,0.167-0.517,0.305-0.923l1.378-4.006
			h1.025v5.757h-0.734v-4.816l-1.673,4.82h-0.686l-1.665-4.906v4.9H571.1V-67.247z"/>
	</g>
	<path fill="#FFFFFF" d="M489.446-81.5c-9.57,0-17.33,7.76-17.33,17.33c0,8.932,6.76,16.286,15.442,17.226
		c1.28-0.936,2.343-2.148,3.103-3.55c0,0,0.56-1.026,0.56-2.786c0-1.982-1.4-3.64-3.263-4.036c-1.09-0.237-2.236-0.308-3.406-0.185
		l-5.366,0.565c-0.142,0.015-0.286,0.022-0.43,0.022c-1.064,0-2.033-0.4-2.764-1.06c-0.976-0.88-1.688-2.047-2.003-3.368
		l6.868-3.133c0.396-0.244,0.686-0.652,0.764-1.146l0.202-1.275c0.09-0.57,0.378-1.112,0.854-1.512l3.068-2.574
		c-1.412-1.338-2.223-3.285-2.04-5.373l0.242-2.76c0.402,1.766,1.24,3.368,2.395,4.684c0.123-1.576,0.802-3,1.84-4.07
		c0.222,1.332,1.08,2.45,2.253,3.025c1.078,0.49,1.907,1.432,2.25,2.582c3.774,0.315,7.206,1.84,9.904,4.188l-2.842,0.525
		c2.913,0.51,5.42,2.197,7.018,4.552c0.007-0.18,0.01-0.36,0.01-0.542C506.775-73.741,499.017-81.501,489.446-81.5L489.446-81.5z"/>
</g>
</svg>
